<?xml version="1.0" encoding="utf-8"?>
<!-- Generator: Adobe Illustrator 16.0.0, SVG Export Plug-In . SVG Version: 6.00 Build 0)  -->
<!DOCTYPE svg PUBLIC "-//W3C//DTD SVG 1.1//EN" "http://www.w3.org/Graphics/SVG/1.1/DTD/svg11.dtd">
<svg version="1.1" id="Layer_1" xmlns="http://www.w3.org/2000/svg" xmlns:xlink="http://www.w3.org/1999/xlink" x="0px" y="0px"
	 width="595.28px" height="841.89px" viewBox="0 0 595.28 841.89" enable-background="new 0 0 595.28 841.89" xml:space="preserve">
<g>
	<defs>
		<rect id="SVGID_1_" x="-144.25" y="33" width="595.28" height="841.89"/>
	</defs>
	<clipPath id="SVGID_2_">
		<use xlink:href="#SVGID_1_"  overflow="visible"/>
	</clipPath>
	<g clip-path="url(#SVGID_2_)">
		<defs>
			<rect id="SVGID_3_" x="-144.25" y="33" width="595.28" height="841.89"/>
		</defs>
		<clipPath id="SVGID_4_">
			<use xlink:href="#SVGID_3_"  overflow="visible"/>
		</clipPath>
	</g>
	<g clip-path="url(#SVGID_2_)">
		<defs>
			<rect id="SVGID_5_" x="-144.25" y="33" width="595.28" height="841.89"/>
		</defs>
		<clipPath id="SVGID_6_">
			<use xlink:href="#SVGID_5_"  overflow="visible"/>
		</clipPath>
		<g opacity="0.8" clip-path="url(#SVGID_6_)">
			<g>
				<defs>
					<rect id="SVGID_7_" x="154.958" y="186.697" width="282.378" height="130.288"/>
				</defs>
				<clipPath id="SVGID_8_">
					<use xlink:href="#SVGID_7_"  overflow="visible"/>
				</clipPath>
				<g clip-path="url(#SVGID_8_)">
					<defs>
						<path id="SVGID_9_" d="M437.336,193.006l-8.41-6.309l-15.125,0.175c-193.142,25.783-262.723,93.646-258.677,130.113
							C154.402,275.362,316.39,189.937,437.336,193.006"/>
					</defs>
					<clipPath id="SVGID_10_">
						<use xlink:href="#SVGID_9_"  overflow="visible"/>
					</clipPath>
					
						<radialGradient id="SVGID_11_" cx="-0.9653" cy="841.6694" r="1" gradientTransform="matrix(149.4768 0 0 -149.4768 431.75 126046.8281)" gradientUnits="userSpaceOnUse">
						<stop  offset="0" style="stop-color:#FAAF42"/>
						<stop  offset="0.1891" style="stop-color:#F9A93A"/>
						<stop  offset="0.4827" style="stop-color:#F79928"/>
						<stop  offset="0.5806" style="stop-color:#F69321"/>
						<stop  offset="1" style="stop-color:#F15B2A"/>
					</radialGradient>
					<rect x="151.078" y="186.697" clip-path="url(#SVGID_10_)" fill="url(#SVGID_11_)" width="286.258" height="130.288"/>
				</g>
			</g>
		</g>
		<g opacity="0.8" clip-path="url(#SVGID_6_)">
			<g>
				<defs>
					<rect id="SVGID_12_" x="155.122" y="192.925" width="282.427" height="138.822"/>
				</defs>
				<clipPath id="SVGID_13_">
					<use xlink:href="#SVGID_12_"  overflow="visible"/>
				</clipPath>
				<g clip-path="url(#SVGID_13_)">
					<defs>
						<path id="SVGID_14_" d="M437.549,193.169l-0.213-0.163c-120.946-3.069-282.934,82.356-282.212,123.979
							c0.256,2.3,0.826,4.463,1.654,6.493c5.67,13.901,40.432,7.719,67.805,0.022c0.999-0.281-4.536-0.985-2.771-4.121
							c-118.921,9.144-38.687-82.308,192.102-120.929l-37.209,32.113L437.549,193.169z"/>
					</defs>
					<clipPath id="SVGID_15_">
						<use xlink:href="#SVGID_14_"  overflow="visible"/>
					</clipPath>
					
						<radialGradient id="SVGID_16_" cx="-1.3291" cy="841.5854" r="0.9973" gradientTransform="matrix(108.4908 0 0 -108.4908 563.1875 91497.875)" gradientUnits="userSpaceOnUse">
						<stop  offset="0" style="stop-color:#FAAF42"/>
						<stop  offset="0.1891" style="stop-color:#F9A93A"/>
						<stop  offset="0.4827" style="stop-color:#F79928"/>
						<stop  offset="0.5806" style="stop-color:#F69321"/>
						<stop  offset="1" style="stop-color:#F15B2A"/>
					</radialGradient>
					<rect x="102.891" y="189.937" clip-path="url(#SVGID_15_)" fill="url(#SVGID_16_)" width="334.658" height="147.442"/>
				</g>
			</g>
		</g>
	</g>
	<g clip-path="url(#SVGID_2_)">
		<defs>
			<path id="SVGID_17_" d="M327.227,177.692c-15.932,6.866-38.73,13.733-73.172-0.723c-9.459-3.971-25.93-11.363-31.113,2.274
				c-3.468,9.121-2.833,19.083-2.453,28.582c0.457,11.343,3.524,19.176,7.189,25.997c30.415-15.3,63.165-26.117,96.17-34.231
				c11.709-2.879,23.5-5.383,35.294-7.873c0.08-9.428,2.933-14.071-4.892-19.968c-1.729-1.303-3.601-1.852-5.661-1.852
				C343.098,169.898,336.268,173.795,327.227,177.692"/>
		</defs>
		<clipPath id="SVGID_18_">
			<use xlink:href="#SVGID_17_"  overflow="visible"/>
		</clipPath>
		
			<radialGradient id="SVGID_19_" cx="-1.5957" cy="841.5249" r="1" gradientTransform="matrix(90.3953 0 0 -90.3953 452.875 76293.6016)" gradientUnits="userSpaceOnUse">
			<stop  offset="0" style="stop-color:#F2F2F2"/>
			<stop  offset="0.4719" style="stop-color:#F0F0F0"/>
			<stop  offset="0.6418" style="stop-color:#E9E9EA"/>
			<stop  offset="0.7626" style="stop-color:#DDDEDF"/>
			<stop  offset="0.8441" style="stop-color:#D1D2D3"/>
			<stop  offset="0.9087" style="stop-color:#CFD0D1"/>
			<stop  offset="0.9508" style="stop-color:#C7C8CA"/>
			<stop  offset="0.9839" style="stop-color:#BBBDBF"/>
			<stop  offset="1" style="stop-color:#BBBDBF"/>
		</radialGradient>
		<rect x="219.474" y="165.606" clip-path="url(#SVGID_18_)" fill="url(#SVGID_19_)" width="142.601" height="68.216"/>
	</g>
	<g clip-path="url(#SVGID_2_)">
		<defs>
			<path id="SVGID_20_" d="M239.144,255.604c2.717,7.731,3.745,16.981,0.329,29.189c-5.857,20.919-5.241,50.916,16.347,64.553
				c-6.234-43.869,5.757-69.093,36.787-68.594c32.324,0.521,35.49,50.304,35.901,74.35c11.086-12.554,19.202-41.347,14.76-64.769
				c-2.212-11.637-5.479-18.046-2.133-30.138c3.397-12.285,13.199-23.537,16.528-36.078c0.914-3.462,1.577-7.033,2.004-10.617
				C309.26,225.473,269.156,240.43,239.144,255.604"/>
		</defs>
		<clipPath id="SVGID_21_">
			<use xlink:href="#SVGID_20_"  overflow="visible"/>
		</clipPath>
		
			<radialGradient id="SVGID_22_" cx="-1.5894" cy="841.5269" r="0.9997" gradientTransform="matrix(90.7543 0 0 -90.7543 452.625 76594.1094)" gradientUnits="userSpaceOnUse">
			<stop  offset="0" style="stop-color:#F2F2F2"/>
			<stop  offset="0.3276" style="stop-color:#EFEFF0"/>
			<stop  offset="0.5425" style="stop-color:#E6E6E7"/>
			<stop  offset="0.7245" style="stop-color:#D8D9DA"/>
			<stop  offset="0.7903" style="stop-color:#D1D2D3"/>
			<stop  offset="0.8798" style="stop-color:#CFD0D1"/>
			<stop  offset="0.9381" style="stop-color:#C7C8CA"/>
			<stop  offset="0.9839" style="stop-color:#BBBDBF"/>
			<stop  offset="1" style="stop-color:#BBBDBF"/>
		</radialGradient>
		<rect x="233.615" y="213.5" clip-path="url(#SVGID_21_)" fill="url(#SVGID_22_)" width="126.052" height="141.602"/>
	</g>
	<g clip-path="url(#SVGID_2_)">
		<defs>
			<rect id="SVGID_23_" x="-144.25" y="33" width="595.28" height="841.89"/>
		</defs>
		<clipPath id="SVGID_24_">
			<use xlink:href="#SVGID_23_"  overflow="visible"/>
		</clipPath>
		<g opacity="0.68" clip-path="url(#SVGID_24_)">
			<g>
				<defs>
					<rect id="SVGID_25_" x="218.098" y="259.256" width="37.354" height="100.625"/>
				</defs>
				<clipPath id="SVGID_26_">
					<use xlink:href="#SVGID_25_"  overflow="visible"/>
				</clipPath>
				<g clip-path="url(#SVGID_26_)">
					<defs>
						<path id="SVGID_27_" d="M231.157,279.584c2.318-8.287,2.298-14.717,0.966-20.328c-4.445,2.375-8.658,4.75-12.612,7.114
							c0.365,2.644,0.368,5.621-0.129,9.09c-8.452,59.2,27.313,81.273,34.84,84.207c7.281,2.838-20.097-23.261-22.159-32.827
							C228.463,310.147,226.689,295.551,231.157,279.584"/>
					</defs>
					<clipPath id="SVGID_28_">
						<use xlink:href="#SVGID_27_"  overflow="visible"/>
					</clipPath>
					
						<radialGradient id="SVGID_29_" cx="-1.7559" cy="841.4888" r="0.9993" gradientTransform="matrix(82.1823 0 0 -82.1823 437.1875 69387.7969)" gradientUnits="userSpaceOnUse">
						<stop  offset="0" style="stop-color:#2AABE2"/>
						<stop  offset="0.1556" style="stop-color:#28A6DE"/>
						<stop  offset="0.3958" style="stop-color:#2098D4"/>
						<stop  offset="0.6893" style="stop-color:#1683C4"/>
						<stop  offset="0.828" style="stop-color:#0F78BC"/>
						<stop  offset="1" style="stop-color:#263D8A"/>
					</radialGradient>
					<rect x="210.93" y="259.256" clip-path="url(#SVGID_28_)" fill="url(#SVGID_29_)" width="50.573" height="103.249"/>
				</g>
			</g>
		</g>
		<g opacity="0.68" clip-path="url(#SVGID_24_)">
			<g>
				<defs>
					<rect id="SVGID_30_" x="195.902" y="142.386" width="137.098" height="102.618"/>
				</defs>
				<clipPath id="SVGID_31_">
					<use xlink:href="#SVGID_30_"  overflow="visible"/>
				</clipPath>
				<g clip-path="url(#SVGID_31_)">
					<defs>
						<path id="SVGID_32_" d="M207.48,245.004c4.315-2.64,8.892-5.259,13.757-7.854c-4.55-8.025-8.805-17.494-9.378-31.859
							c-1.555-38.935,8.251-55.987,45.4-39.174c24.056,10.888,62.74,8.633,75.74-2.367c-43.383,6.565-50.058-4.632-82.785-17.404
							c-59.845-23.361-61.257,63.009-46.493,92.513C204.855,241.126,206.147,243.128,207.48,245.004"/>
					</defs>
					<clipPath id="SVGID_33_">
						<use xlink:href="#SVGID_32_"  overflow="visible"/>
					</clipPath>
					
						<radialGradient id="SVGID_34_" cx="-1.7935" cy="841.479" r="1.0006" gradientTransform="matrix(80.4303 0 0 -80.4303 418.375 67913.2578)" gradientUnits="userSpaceOnUse">
						<stop  offset="0" style="stop-color:#2AABE2"/>
						<stop  offset="0.1556" style="stop-color:#28A6DE"/>
						<stop  offset="0.3958" style="stop-color:#2098D4"/>
						<stop  offset="0.6893" style="stop-color:#1683C4"/>
						<stop  offset="0.828" style="stop-color:#0F78BC"/>
						<stop  offset="1" style="stop-color:#263D8A"/>
					</radialGradient>
					<rect x="188.958" y="122.985" clip-path="url(#SVGID_33_)" fill="url(#SVGID_34_)" width="144.042" height="122.019"/>
				</g>
			</g>
		</g>
		<g opacity="0.68" clip-path="url(#SVGID_24_)">
			<g>
				<defs>
					<rect id="SVGID_35_" x="259.415" y="147.991" width="122.343" height="221.64"/>
				</defs>
				<clipPath id="SVGID_36_">
					<use xlink:href="#SVGID_35_"  overflow="visible"/>
				</clipPath>
				<g clip-path="url(#SVGID_36_)">
					<defs>
						<path id="SVGID_37_" d="M366.201,184.006c0.401,2.056,0.727,4.016,1.003,5.937c4.764-0.891,9.612-1.752,14.554-2.588
							c-2.978-21.954-8.205-36.02-30.341-38.92c-22.853-2.99-24.931,9.96-44.667,13.565
							C325.361,165.08,356.659,135.289,366.201,184.006"/>
					</defs>
					<clipPath id="SVGID_38_">
						<use xlink:href="#SVGID_37_"  overflow="visible"/>
					</clipPath>
					
						<radialGradient id="SVGID_39_" cx="-2.335" cy="841.356" r="1" gradientTransform="matrix(61.773 0 0 -61.773 512.1875 52138.918)" gradientUnits="userSpaceOnUse">
						<stop  offset="0" style="stop-color:#2AABE2"/>
						<stop  offset="0.1556" style="stop-color:#28A6DE"/>
						<stop  offset="0.3958" style="stop-color:#2098D4"/>
						<stop  offset="0.6893" style="stop-color:#1683C4"/>
						<stop  offset="0.828" style="stop-color:#0F78BC"/>
						<stop  offset="1" style="stop-color:#263D8A"/>
					</radialGradient>
					<rect x="306.75" y="135.289" clip-path="url(#SVGID_38_)" fill="url(#SVGID_39_)" width="75.008" height="54.654"/>
				</g>
				<g clip-path="url(#SVGID_36_)">
					<defs>
						<path id="SVGID_40_" d="M374.725,235.046c3.717-7.528,6.12-16.769,7.033-26.462c-4.813,0.997-9.537,2.023-14.179,3.074
							c-1.044,23.757-24.905,41.581-20.089,64.794c2.059,9.919,10.656,34.684-4.139,73.129c-3.092,8.034-13.467,18.801-20.225,7.91
							c-6.212-10.008-1.854-84.257-43.172-67.513c-19.077,7.731-20.59,46.302-20.538,69.903c6.845-6.199,9.739-55.697,28.314-57.95
							c30.219-3.67,4.379,68.92,41.004,67.684c10.93-0.373,18.086-4.404,20.97-13.611c15.771-50.382-0.853-66.104,4.92-89.067
							C357.142,256.919,367.342,250.044,374.725,235.046"/>
					</defs>
					<clipPath id="SVGID_41_">
						<use xlink:href="#SVGID_40_"  overflow="visible"/>
					</clipPath>
					
						<radialGradient id="SVGID_42_" cx="-1.4971" cy="841.5483" r="1" gradientTransform="matrix(96.3301 0 0 -96.3301 448.4375 81328.2266)" gradientUnits="userSpaceOnUse">
						<stop  offset="0" style="stop-color:#2AABE2"/>
						<stop  offset="0.1556" style="stop-color:#28A6DE"/>
						<stop  offset="0.3958" style="stop-color:#2098D4"/>
						<stop  offset="0.6893" style="stop-color:#1683C4"/>
						<stop  offset="0.828" style="stop-color:#0F78BC"/>
						<stop  offset="1" style="stop-color:#263D8A"/>
					</radialGradient>
					<rect x="259.365" y="208.584" clip-path="url(#SVGID_41_)" fill="url(#SVGID_42_)" width="122.393" height="162.267"/>
				</g>
			</g>
		</g>
		<path clip-path="url(#SVGID_24_)" fill="#1F424D" d="M320.125,216.625c0,0,5.069-4.36-1.954-7.489c0,0-4.04-1.986-14.451-0.638
			c0.607-1.298,1.671-3.692,2.66-6.401l3.059,0.73c0.173,0.064,0.349,0.108,0.533,0.129c0.145,0.009,0.292,0.013,0.441-0.004
			c1.248-0.139,2.14-1.318,1.998-2.631c-0.098-0.863-0.614-1.567-1.31-1.915c-0.364-0.187-0.782-0.271-1.216-0.227
			c-0.07,0.008-0.136,0.023-0.205,0.04l-1.956-0.266c1.209-4.38,1.62-8.631-0.716-9.983l-1.499-0.557c0,0-0.654,7.595-11.349,22.936
			c-0.703,0.175-1.427,0.365-2.165,0.565c-1.852,0.501-3.811,1.079-5.893,1.749c0,0-0.208,0.053-0.556,0.141
			c-0.882,0.222-2.752,0.697-5.029,1.281c-1.63,0.418-3.459,0.89-5.273,1.364c-1.838,0.479-3.658,0.96-5.229,1.385l2.669-3.043
			l1.812-2.066c0,0,0.176-0.479,0.128-0.8c-0.029-0.192-0.142-0.325-0.42-0.263c-0.33,0.075-0.896,0.421-1.843,1.276l-1.02,0.907
			l-3.69,3.285l-5.766-4.207l-0.853-0.623l-4.291-3.132c0,0-3.84-3.151-1.06,1.575c0,0,4.264,6.347,7.713,8.941l-9.87,6.907
			c0,0-1.287,1.376,1.082,0.497l10.654-4.673c0.307,0.273,0.711,0.576,1.169,0.893c0.009,0.006,0.017,0.011,0.024,0.016
			c0.169,0.117,0.318,0.229,0.513,0.351c1.498,0.951,3.629,1.699,6.412,2.172c1.501,0.253,3.434,0.471,6.223,0.481
			c-4.025,2.439-15.947,9.253-31.321,14.194c0,0-6.511,2.863,6.549,1.225c0,0,1.61,1.782,2.433,2.68
			c1.03,1.123,3.632-0.113,3.189-1.572c-0.228-0.753-1.538-1.873-1.538-1.873c4.029-1.002,7.972-2.473,12.993-4.739
			c0,0,2.952,2.173,4.206,2.754c0.541,0.248,1.114,0.215,1.659,0.037c0.213-0.07,0.418-0.155,0.615-0.269
			c1.063-0.61,1.869-1.766,1.775-2.623c-0.063-0.564-0.3-1.061-0.656-1.455c-0.234-0.263-0.521-0.474-0.847-0.625l-0.898-0.665
			c3.218-1.671,6.525-3.566,9.838-5.671c1.076-0.683,2.153-1.388,3.228-2.116c0.88-0.098,1.806-0.209,2.771-0.331
			c0.999-0.128,8.197-1.258,9.293-1.412c2.311-0.327-1.313,0.271,1.464-0.197c0,0,2.317-0.35,5.317-1.183
			C313.047,220.551,317.289,219.003,320.125,216.625"/>
	</g>
</g>
</svg>
