<?xml version="1.0" encoding="utf-8"?>
<!-- Generator: Adobe Illustrator 16.0.0, SVG Export Plug-In . SVG Version: 6.00 Build 0)  -->
<!DOCTYPE svg PUBLIC "-//W3C//DTD SVG 1.1//EN" "http://www.w3.org/Graphics/SVG/1.1/DTD/svg11.dtd">
<svg version="1.1" id="Capa_1" xmlns="http://www.w3.org/2000/svg" xmlns:xlink="http://www.w3.org/1999/xlink" x="0px" y="0px"
	 width="83.375px" height="23.5px" viewBox="-2.5 21.75 83.375 23.5" enable-background="new -2.5 21.75 83.375 23.5"
	 xml:space="preserve">
<metadata><?xpacket begin="﻿" id="W5M0MpCehiHzreSzNTczkc9d"?>
<x:xmpmeta xmlns:x="adobe:ns:meta/" x:xmptk="Adobe XMP Core 5.3-c011 66.145661, 2012/02/06-14:56:27        ">
   <rdf:RDF xmlns:rdf="http://www.w3.org/1999/02/22-rdf-syntax-ns#">
      <rdf:Description rdf:about=""
            xmlns:xmp="http://ns.adobe.com/xap/1.0/"
            xmlns:xmpGImg="http://ns.adobe.com/xap/1.0/g/img/">
         <xmp:CreatorTool>Adobe Illustrator CS6 (Windows)</xmp:CreatorTool>
         <xmp:CreateDate>2017-07-30T17:31:49+02:00</xmp:CreateDate>
         <xmp:MetadataDate>2017-07-30T17:31:49+02:00</xmp:MetadataDate>
         <xmp:ModifyDate>2017-07-30T17:31:49+02:00</xmp:ModifyDate>
         <xmp:Thumbnails>
            <rdf:Alt>
               <rdf:li rdf:parseType="Resource">
                  <xmpGImg:width>256</xmpGImg:width>
                  <xmpGImg:height>72</xmpGImg:height>
                  <xmpGImg:format>JPEG</xmpGImg:format>
                  <xmpGImg:image>/9j/4AAQSkZJRgABAgEASABIAAD/7QAsUGhvdG9zaG9wIDMuMAA4QklNA+0AAAAAABAASAAAAAEA&#xA;AQBIAAAAAQAB/+4ADkFkb2JlAGTAAAAAAf/bAIQABgQEBAUEBgUFBgkGBQYJCwgGBggLDAoKCwoK&#xA;DBAMDAwMDAwQDA4PEA8ODBMTFBQTExwbGxscHx8fHx8fHx8fHwEHBwcNDA0YEBAYGhURFRofHx8f&#xA;Hx8fHx8fHx8fHx8fHx8fHx8fHx8fHx8fHx8fHx8fHx8fHx8fHx8fHx8fHx8f/8AAEQgASAEAAwER&#xA;AAIRAQMRAf/EAaIAAAAHAQEBAQEAAAAAAAAAAAQFAwIGAQAHCAkKCwEAAgIDAQEBAQEAAAAAAAAA&#xA;AQACAwQFBgcICQoLEAACAQMDAgQCBgcDBAIGAnMBAgMRBAAFIRIxQVEGE2EicYEUMpGhBxWxQiPB&#xA;UtHhMxZi8CRygvElQzRTkqKyY3PCNUQnk6OzNhdUZHTD0uIIJoMJChgZhJRFRqS0VtNVKBry4/PE&#xA;1OT0ZXWFlaW1xdXl9WZ2hpamtsbW5vY3R1dnd4eXp7fH1+f3OEhYaHiImKi4yNjo+Ck5SVlpeYmZ&#xA;qbnJ2en5KjpKWmp6ipqqusra6voRAAICAQIDBQUEBQYECAMDbQEAAhEDBCESMUEFURNhIgZxgZEy&#xA;obHwFMHR4SNCFVJicvEzJDRDghaSUyWiY7LCB3PSNeJEgxdUkwgJChgZJjZFGidkdFU38qOzwygp&#xA;0+PzhJSktMTU5PRldYWVpbXF1eX1RlZmdoaWprbG1ub2R1dnd4eXp7fH1+f3OEhYaHiImKi4yNjo&#xA;+DlJWWl5iZmpucnZ6fkqOkpaanqKmqq6ytrq+v/aAAwDAQACEQMRAD8A9U4q7FXYq7FXYq8887/n&#xA;7+Vvky9fTtX1cSanHtLY2aNcSxnuJOA4Rt/kuwPtirzzUf8AnNb8u4SVsNH1W7I/akW3hU/I+rI3&#xA;/C4qnPm//nKfynovkjQvMun6dcajN5hE/wBTsHdYDEbVhHN67gS04u1BxB5Yq8R1P/nJH8+PPd22&#xA;neVbZrMMf95tFtXnuOB6c5WEzr/rLwxVZH/zjv8A85GebR6+vTSIJN+WsaiZWIJruiNcMvyIGKq8&#xA;n/OF35rxL6keo6LI6kUVLi6DfMFrZR+OKoSXyN/zlP8Al5/pdg2qm0i3/wBx9z9fgovdrUNLsB3a&#xA;KmKsr8hf85ma1aXCaf590xbqJW9OXUrJfRuEoaEy25+ByD148KeBxV9QeVvN3lzzXpEWr+X7+LUL&#xA;CXYSxHdW7pIhoyOO6sAcVTfFXYqwbz3+dn5beR5/qmvauiajQE6fbq1xcAEVHNIwfTqDUcyK9sVe&#xA;bal/zmp+W0FVsNL1W8cdGaOCGM/SZWb/AIXFU41L/nKfydb/AJbWvnW10+6uXu7x9NTSmZI5EuYo&#xA;xK/qSDmoQIynkAT8Q260VeJ6z/zlN+c/nC7OmeU7FdOaYkRW+mW73l4VO1C7iT70jXFULH+Rf/OS&#xA;vnQfWNckuljl3DaxqB6EdPR5yunyKDFUS/8AzhZ+aqxlhqOiOwFRGtxdcj7b2oH44qhZvys/5yh8&#xA;hf6TpL6k9tDU10m8Nyhpvvaq3Nh84sVT/wAlf85h+c9GvBpvnzTBqUUT+ncXMUYtL6Omzc4qLE5H&#xA;8vFPnir6h8k+f/KXnbSV1Ty3qEd7BsJox8M0LkfYliajIfnse1RirIcVdirsVdirsVdirsVdirsV&#xA;dirsVeUf85LfmPqHkf8ALeSfSZPR1fVp10+znH2oQ6M8sq+6ohVT2Zge2KvCvyC/5xps/POijzb5&#xA;su7iPS7mR1sLO3YJLcem5WSWWRg9E5hlAX4juajuqyf8/wD/AJx//Lfyf+Vd5rfl3TZIdTs7i253&#xA;ktxcSt6UsgiYFGcxbs4/ZH8MVeI66Prn5IeU7obnTNZ1awY/8Z4rW5Ub+FSdttzir7U/IOS0l/J/&#xA;yrNbRRxB7CJJfTVV5SQj0nZuIFWJj3J3xVn+KuxV2KsA/Mv8j/IP5gW8japYrbauVpDrNqBHcqQP&#xA;h5kCkqj+V6+1OuKvku7tfzF/5x3/ADHhKXHr2U9JFKEra6jaK1GV0PLg61p3KHcEgglV9zaHrFlr&#xA;Wi2GsWLFrPUbeK7tmOxMcyB1qPGjb4qxD88fP9x5F/LbVNdsyv6TIS103kKgXE7cQ9DUH015PQ9e&#xA;NMVfL/5C/kDJ+Z5vvNXmm+uE0f6w6comH1q7udnlZpHD0Uc/iahLE9qYq9L/ADb/AOcbvyu8t/lZ&#xA;5g1bRdMlGsWECz215LdXDsgSVTJ8HL0jWPkN0+7rir59twLn8hLxBu+m+Z4JSPBL2wkQn6WtV6fw&#xA;xV9a/wDOKUlpL+S2jvFFGlwkl1FdSIqqzslzIULlQKkRso3xV69irsVdirDfzC/KPyJ5+s2h1/Tk&#xA;a748YNUgAju4vDjKAagfyvVfbFXyB5z8mfmB/wA4/wDney1XSdQMtlcMxsNQQFY7iNCDJbXUNSK0&#xA;IqtaHqpqNlX2p5E822fm/wAn6T5ls14Q6nbrMYq19OTdZY67V4SKy19sVT3FXYq7FXYq7FXYq7FX&#xA;Yq7FXYq8E/5zJ8tXmp/ltZ6taqZBol8st0oFaQToYmfb+WQp9BOKof8A5xX/ADc8p3PkOy8n6hfQ&#xA;6frekGSOKG4dYhcQyStKjxFyAzD1OLKN9q9DirIv+cj/ADV5LuPyn8x6LJrmn/pKeGM29j9ZiM7y&#xA;QzxzBViDcyfg8MVfJ9gpu/yD1eNRVtL8yWVyx32S6s54T3/miXFXuH/OO3/ORH5e6D5F0nyd5jup&#xA;tOvrFp1W9liLWrLNcPMg9RDIy09SlWVVHjir6Z0/UdP1KzivtOuYryynXlDcwOskbr4q6kqcVRGK&#xA;uxVxIAqdgOpxV8c/85j+fvLuv6zoegaPcR30+jfWXv7mFhIiSXHpqIVdSRyX0quPl3rir6c/KrRb&#xA;3RPy18s6VfBkvLTTrZLmN/tJIYwWjP8AqE8foxVhv/OU/lq+138ntRNkjSTaVNDqLRLuWjhJWU/7&#xA;CORnPyxV53/ziR+bvlaz8syeSdavYdNv7e4kn06S4ZYop4pqMyB2IX1FevwnqCKVocVeu/nD5s8l&#xA;L+XnmfSr7XdPt7u80u7htraS6iWVpZIGEQWPlzYl6bAYq+MvJKtcflJ+Y9qAWMI0e/VRUn91eNAx&#xA;22+zc1Py9sVerf8AOM35+eRvJ/lOTyt5onuLKVr6W4tr30mlthFKkYCMYy8itzVj9jjTv1xV9W6N&#xA;rej63p8Wo6PewahYTf3VzbSLLGadRyUkVHcdsVRuKuxV2Kvlf/nMz8wPLl7pWl+T7C4ivNUt7369&#xA;fGJg/wBXEcTxLE5FaM/rV49Rx37Yq9h/5xz0i90n8lfK9neoY52glueBFCEu7mW5jqP+Mcq4q9Hx&#xA;V2KuxV2KuxV2KuxV2KuxV2KqV5aWt7aTWd3Es9rcI0U8EgDI6OOLKwPUEGmKvmTz1/zhXa3WoS3n&#xA;k3WUsLeVuQ0u/V3SKpqRHOnJ+I7BkJ/yjiqUaR/zg/rTtXWPNFtbqP2bO2knJH+tI8FPuOKvZ/y+&#xA;/wCcePIflDy5q2hSxvrltrjQtqf6QCMri3qYVVECheDOzA/aqevTFWK+d/8AnD38utXt3k8tPN5d&#xA;1ClYwrvc2rH/AC45WMgr/kuKeBxV4UYfz2/ILV3aP1I9JdwWkAa50m5qaCvQI5pT9iT6MVekaJ/z&#xA;nBH6CprnlY+uB8U1lcjgx9o5Uqv/AAZxVC+Yv+c3r54Wj8ueWY4Jj9m51Ccygf8APGJYv+TmKsHC&#xA;f85LfnGdzfz6PPsa00/TOB9v3UctAf8ALbFXr35Q/wDOJFh5b1O217zjeRarqNowltdNt1Y2kci7&#xA;q8jyBWlKncLxUV68sVfReKtMqspVgGVhRlO4IPY4q+bfzG/5w10fVdRl1HyZqKaN67F5NLuUaS2V&#xA;jufRdTzjWv7PFh4UG2KsX0r/AJwg8xSS/wC5bzPZ20QPW1gluGI/56G3AxV7H+WP/OOHkryPa6pF&#xA;JJJrkms24s7/AOuonomCvJkWJRsGNCasegpTFUp85f8AOI35W61byNosU3l2/I/dzWzvNBy/y4Jm&#xA;bb2RlxV4DqflH88fyI1mTUtMlm/RTH49RtAZ9PmQdBcxMCEbt+8APXi3fFWf+X/+c35lgSPzD5YW&#xA;ScD95c2FwUVjTtDKrkb/APFhxVfrv/OcBMDJoHlbjOfsz39zyRT7xRIpb/kYMVYC3mL/AJyW/OFz&#xA;HZfX5NJlJUpZr9Q04KeqvLWNZAK9Hdjir0n8r/8AnDiOwv7bVvPd9De+gwkTRbPk0LMDUCeZwpZf&#xA;FFWh/mI6qvp5VVVCqAqqKKo2AA7DFW8VdirsVdirsVdirsVdirsVdiqyaaGCJ5ppFihjUtJI5Cqq&#xA;gVJYnYAYq8p80f8AOUX5O6BK8A1V9XuI9mi0yIzr9EzGOBvokxVjcX/OaX5VPIqNp2txKesj29qV&#xA;Hz43LN9wxV6H5O/PD8rfNzJDo+vW/wBdegFjdVtZyzfsokwT1D/qcsVZ1iq2WKKWNopUWSNwVdGA&#xA;KkHqCD1xVhmo/kp+Uuoz+vdeU9MMpqWaK3SGpPUt6XCp+eKq+i/lF+WGizi403yvp0Fwp5JObdJJ&#xA;FP8AkvIGZfoOKsuxV2KuxVxIUEk0A3JPQDFXl/mz/nJT8oPLU72s+sjUbyM0e301Dc0I6gyrSGoP&#xA;Uc64qxFP+c1PyrZ1U6ZraAkAsbe0oPc0uicVZ15R/wCcgfyl80yLBYa9DbXj0paX4NpISeiqZeKO&#xA;3sjHFXogIIqNwehxVxAYEEVB2IPQjFWHat+Tn5V6tcNcX/lXTZJ3NXlS3SJ2PizRhCx+eKrdL/Jj&#xA;8qNLuBcWXlTTUnG6yPbpKVI7r6ofiflirMlVVUKoCqooqjYADsMVbxV2KuxVifnT81fy+8lrTzHr&#xA;VvZ3BHJbMEy3JB6EQRB5KHxIp74q8xuv+cz/AMp4ZjHHZazcqOksVvbhT8vUuI2/DFU38u/85Y/k&#xA;7rEywzXtzo8j7L+kYCiV95IWnRfmzAYq9Z0vVtL1azS+0u8gv7KXeO5tpEmjbvs6FlOKorFXzz+f&#xA;f/OTz+T9Ul8reUYobnXIBTUdQnHOG2ZhURIgI5ygGrEnivShNaKvJ0/M3/nLZLdNaC6y9jJ+8WY6&#xA;TG0BQ71p9W4hDXY/dirI/wAv/wDnLP8AMeTzZpXl/wAy6bZ3UV7eQWdw6xSW12nryCPlTl6fw8q8&#xA;fTFfHFWe+fv+cwPKXl3VdR0bStIutW1DTppLWSZ2S3tTLExR+L/vZGVWFPsCvbbfFXiGqeavzx/P&#xA;nVf0dZQSNpKuOVjaBoNOg3qGuZWJDMBv8bE/yr2xV6/5L/5wu8pWcEc3m7U7jVb2gMlrZn6taqe6&#xA;8qGZ/wDWqnyxVmVz/wA4p/kfNb+lHocts9KevFe3Zfp1pJLIn/C4q8u85/8AOE0y85/JuuhxuVsN&#xA;VXifkLiFaE+FYh88VYEPMf8Azkd+TE0MeoNeQ6SrhY4Lwi+06QD/AHWkgMix1ArxR1bFX1j+T/5r&#xA;aT+ZPlVdXtI/q19bsINUsCamGbjX4T+1G/VG+jqDirOcVeHfn9/zkdB+X83+HtBhjvvNEkYedpqm&#xA;CzRxVC6qQXkYbqlRQbnsCq8Qt/zS/wCcstRthrtj+l5tPlPOKa30qN7crTqgFuysg8d/c1xVMdF/&#xA;5zA/NXSb6K18xaZaX8YZRcRyQSWt0VrRuJRlQMfeM74q9h/Mz/nKvyh5L12+8vW+mXeravYEJPxK&#xA;QWwkKhuHqsXckV3pHT54q8E8w/mj+dn52X50DRbSVNNc0k0rTAyQ8GNAby4Yiq/67KntXFXp/kX/&#xA;AJws0WG3jufOuqy3d4wDNp+nERQIf5WmdWkk/wBiExVn8n/OKn5HPb+kuhSRyUp9YW9vOfzo0rJ/&#xA;wuKvN/OX/OE1m4efybrrQvuVstUHNCfAXEKhlHzjPzxV5tKn/OR/5LcZGe9tNGiYKG5LfaYRWgBB&#xA;9SOLn034Nir6f/Iv86rD8zdBlkkhWy8wadwXVLJCfTPOvCaHkS3ptxOx3U7GuxKr03FWJ/md+ZOg&#xA;/l75Wm17VqyUYRWVkhAkuJ2BKxpXpsCWbsB9GKvlGX8/v+ci/PWpzHyjDcQ20RqbLSLIXCxqa8fV&#xA;meOZq08WAJ6DFVkf/OSP/ORHlN1j8wwGQj4Vj1nTjbnbtWIWrn78Vez6V/zlRodv+WWmebfM+nTQ&#xA;3+o3VxZQ2GngOJGtuJeVTKycUAkUGrE18cVeVeeP+cvvPHmL/cV5M079CLcH0knU/W76QtsBH8IS&#xA;Mn/JVm8GxVd+Xv8AziZ5z81S/pvz7fTaRDct6skDn1tSn5blpDIWERP+XybxXFXtOm/84n/klaQC&#xA;K40ifUXAA9e5vLlXNO9Ld4E3/wBXFWP+av8AnDP8u9RhZvL97eaFd0+AFvrdv/skkIl+6XFXkGqf&#xA;kB+fn5cXkmp+V5pruJet3oc8glZBuBJbfBI3uoVxir0L8h/+cn9a1bzBb+UPPvA3l2/1ew1YRiFz&#xA;cVosNzGoVKufhVlUfFsRvUKvNv8AnGHStP8AN/52S6l5h43NzBDdawkcgBWW9MyAEqevEztIPdcV&#xA;fc2KviTVD+mv+cw1JNRD5gtySa7DTwn6vq/y+jFUv/5x18u6N56/Oi8k1yxj1Gx9G81OW2uFLRlm&#xA;lUKXUkg0abo1Rir7jsNO0/TrSOz0+2is7SIUit7dFijUeCogCjFURirsVdirGvzLstDvPy/8wwa6&#xA;E/RR0+4a5ZwCECRlg4qR8SMAy79aYq+ZP+cIZr0ebPMsCV+pPYRPP4eqk1Iq/wCxeTFX2Bir4Y8i&#xA;6bZ+c/8AnKSaLzIonil1bUbiS0moyu1oJZIoSCaFV9JRx3BVadMVfc4AUAAUA2AHQDFXxL+fwOs/&#xA;85OQaTTnS40ixCgNU+ssT02Nf939sVQXlTSdM87f85UXtrqdul7pV1rGqyzQSjkjQwLO0Yah/wAh&#xA;O+KvtvSNF0fRrJLHSLG30+yj+xbWsSQxj5KgUYqjMVdirsVQes2mmXmk3tpqqRyaZPBJHepLQRmF&#xA;lIk5E9Bxrir4w/5w/lmi/OO5hsWZ7KTTrpZmPeFZIyjEfDvzC9u+KvtvFXyD/wA5vajeP5n8t6ax&#xA;P1KGyluY1/ZMssvBz8wsS4q+lPys8s6H5c8gaHpujIgtPqkMzToP7+SWNXedjQcjITWvht0GKvJv&#xA;+c1b/wBL8tdJsw1HutXjYjapSK3mrsd/tOvTFXzj57Ig/K78trE7SNb6rfuu3/HzfmJTt4pajrir&#xA;7X/KT8v/ACp5a8oaJNp2k2ttqk2nWpvr9Ik+sSyNCpkZ5aczyYk0rTFWdYq7FXYq7FXw3/zlfBpu&#xA;n/nWJ9CIj1F7W0ub4QAclv8Am/E0A+2Ylif3rXviqJ/Nv8vvOn5O/mR/jfysHXRJbl7mwvY1LxwN&#xA;MT6lncL2U8iq1+0vQ8gaKsx0f/nOGkMaaz5UrMAPVns7uise5WKSMlfl6hxV5Z+XOt/pn86Na83i&#xA;No0WHX9c9IgErytLmRAeo+FpF8cVTj/nE/zp5M8p+dNUvPMuox6b9bsRaWc8yt6ZZpkkdWdVYJ/d&#xA;g1YgYq+2tM1fSdVtVvNLvYL+0f7NxaypNGfk6FlxVF4q7FWDefPzr/LfyRFINZ1eJ79AeOl2pE92&#xA;x7KY0PwV8ZCo98VfKf5g/nL+Y/506unlTy1p80GkTuPS0a1POScKQRJdy/COKn4qbIvU1I5Yq+l/&#xA;yD/J2L8tPK0kFzIlxr+qMk2rXEf2FKAiOCMmhKx8m37kk+AxV6dir45/5yK/K3zX5K8+v+ZnlRZR&#xA;p9xcjUJbm3Us9le15SNKKH91K9W5H4akq3bkqm2gf85v3kdtFFr/AJXS4nUATXdlcmIMdgSIJI3p&#xA;3P8AeYq888t+ZLfz5/zkxpnmNYGt7e81aG+WCSjMiWcYkFeOxoIO2Kqf/OPHnbyxof5uv5j803o0&#xA;+2mhujHcOryKLi4YUDGNGIHFm+KgGKvufRfMOg65a/W9F1G21K22rNaTJMgr0BKFqHFUwxV2KsR8&#xA;6/mx+X3kuF28wa1b29woqthG3q3TbbUgj5Pv4kBffFXyp+aP/OQ/nX8z7v8Awl5Nsbiy0i+Ywizg&#xA;Be+vQeqymOvCMj7SLtSvJiMVe6f844fkfN+Xej3Opa0UfzPqyqtwkZ5JbQKeQgDDZmLfE5G1aAdK&#xA;lV7Lirxf/nJz8n77z75XttQ0SP1fMOhmR7e3FAbiCWnqxAmnxgoGSvuP2sVeF/lr/wA5Q+cvy90p&#xA;fK2u6P8Apa1039zbQ3Ej2d3bqu3oszRy1VP2VZKjpWlAFUs/Pv8APux/M/TdFtLTSptMOnSzzXCy&#xA;yrKrGRUVOJVVOwVuoxVjv5tKIz5H09m4R23lfTSxoSFN2ZbtjQd/9I7DFX3L5M/Mz8uvNEEUPlrX&#xA;bW9ZUAS05+nchVFBWCXhN9PHFWWYq7FUBrfmDQtCsmvta1C302zWtZ7qVIkqBWgLkVPsMVfOX5q/&#xA;85h6bbwzaX+XsRu7tqo2uXKFYI+1YIWo0jeDOAB4NirGfyD/ACK81+a/NVv+YXnlZV05ZxfwreE/&#xA;Wb+4rzjkZW3EIb4qt9rYAcTXFX2BLFFLG0UqLJG4KujAFSD1BB64qw3VPyV/KbVCxu/Kemc3rzeG&#xA;3S3Yk1qS0Ijau/XFXeVPyZ/LLypdXl1oOhQ2k9/C1tdO0k0/KGQgvGBM8gVWoKhaVxV5p5v/AOcN&#xA;fy81QyzeXry60C5fdIq/W7UH/jHIRL/yV+jFXk99/wA4t/np5VvHuvK14l4w+xcaXemyn4j+YSm3&#xA;ofYOcVWCH/nMSwVYK+YHHIICXFya9N5KyGm32iaYqsl/Lv8A5yz81k2+otq5tZCRIt5qC28H0xGV&#xA;a/QhxVlfkz/nCfUHkSfzlrkcMI3ax0sF5GHgZ5lVVPyjb54q+j/JP5eeTvJOnfUPLWmRWMbU9eUV&#xA;eaUjvLK9Xf6TQdqYqyPFXYq4gMCCKg7EHoRirENW/KD8rdWd5L/yrpkk0hrJMtrHFIxPdnjCMT8z&#xA;iqH8q/kp+V3lTWxrmgaDFZaoqsiXPqzylAy8G4LLI6oSpIJUA4qwTzp/ziH+WuvTT3mkyXPl++nZ&#xA;nIt2E1rzY1JMEvxAV/ZSRQMVePat/wA4l/nH5cvDd+Vr+DUStfSms7lrG6p7iUxqv0SnFUP9T/5z&#xA;E0tGh5eYZApAJ9UXh38H5TE9exxVqbyV/wA5deZWMF42tei+0iT362sNCAPiQyxq33HFWQeUf+cK&#xA;/Md1Mtx5v1uCygY8pLaw5XFw1eoaWQJGje4D4q+jvIH5U+RvIVoYfLmmrBPIoW4v5T6t1KBv8crb&#xA;0rvxWi+2KsuxV2KuxVJNe8jeTPML+pruhWGpygcVmu7aKaQAdld1LD6DirEbr/nHH8k7qdZpPKtu&#xA;rqeQEUtzClfdI5UUj2IxVX/MT8h/y68+CCTV7KS3vrWBbW1vrKQwyRwpUpGFo0TBa7ckNMVeC+av&#xA;+cKPMVs5n8qa9b3yD4lt79WtpRToFkj9VHPuQmKsfh8jf85ceWCLexbWfQUgRpbX6XUPQj4UEsgX&#xA;6VGKrjaf85iakghLeYEViRUSi1O1R9sNER9+Kq2lf84ofnP5mvRdea7+LT6/3s99dG/uaf5IiaVW&#xA;+mUYq90/Lj/nF/8ALjydLFfXUTeYNYioVu79VMKOP2orYVRfYuWI7HFXsGKv/9k=</xmpGImg:image>
               </rdf:li>
            </rdf:Alt>
         </xmp:Thumbnails>
      </rdf:Description>
      <rdf:Description rdf:about=""
            xmlns:xmpTPg="http://ns.adobe.com/xap/1.0/t/pg/"
            xmlns:stDim="http://ns.adobe.com/xap/1.0/sType/Dimensions#"
            xmlns:xmpG="http://ns.adobe.com/xap/1.0/g/">
         <xmpTPg:MaxPageSize rdf:parseType="Resource">
            <stDim:w>83.375000</stDim:w>
            <stDim:h>23.500000</stDim:h>
            <stDim:unit>Pixels</stDim:unit>
         </xmpTPg:MaxPageSize>
         <xmpTPg:NPages>1</xmpTPg:NPages>
         <xmpTPg:HasVisibleTransparency>False</xmpTPg:HasVisibleTransparency>
         <xmpTPg:HasVisibleOverprint>False</xmpTPg:HasVisibleOverprint>
         <xmpTPg:PlateNames>
            <rdf:Seq>
               <rdf:li>Cyan</rdf:li>
               <rdf:li>Magenta</rdf:li>
               <rdf:li>Yellow</rdf:li>
               <rdf:li>Black</rdf:li>
            </rdf:Seq>
         </xmpTPg:PlateNames>
         <xmpTPg:SwatchGroups>
            <rdf:Seq>
               <rdf:li rdf:parseType="Resource">
                  <xmpG:groupName>Default Swatch Group</xmpG:groupName>
                  <xmpG:groupType>0</xmpG:groupType>
               </rdf:li>
            </rdf:Seq>
         </xmpTPg:SwatchGroups>
      </rdf:Description>
      <rdf:Description rdf:about=""
            xmlns:dc="http://purl.org/dc/elements/1.1/">
         <dc:format>image/svg+xml</dc:format>
      </rdf:Description>
      <rdf:Description rdf:about=""
            xmlns:xmpMM="http://ns.adobe.com/xap/1.0/mm/"
            xmlns:stRef="http://ns.adobe.com/xap/1.0/sType/ResourceRef#"
            xmlns:stEvt="http://ns.adobe.com/xap/1.0/sType/ResourceEvent#">
         <xmpMM:DerivedFrom rdf:parseType="Resource">
            <stRef:instanceID>xmp.iid:5A4173CF3A75E711B8B1F5C54CC5C5CA</stRef:instanceID>
            <stRef:documentID>xmp.did:5A4173CF3A75E711B8B1F5C54CC5C5CA</stRef:documentID>
            <stRef:originalDocumentID>xmp.did:524173CF3A75E711B8B1F5C54CC5C5CA</stRef:originalDocumentID>
         </xmpMM:DerivedFrom>
         <xmpMM:DocumentID>xmp.did:5B4173CF3A75E711B8B1F5C54CC5C5CA</xmpMM:DocumentID>
         <xmpMM:InstanceID>xmp.iid:5B4173CF3A75E711B8B1F5C54CC5C5CA</xmpMM:InstanceID>
         <xmpMM:OriginalDocumentID>xmp.did:524173CF3A75E711B8B1F5C54CC5C5CA</xmpMM:OriginalDocumentID>
         <xmpMM:History>
            <rdf:Seq>
               <rdf:li rdf:parseType="Resource">
                  <stEvt:action>saved</stEvt:action>
                  <stEvt:instanceID>xmp.iid:524173CF3A75E711B8B1F5C54CC5C5CA</stEvt:instanceID>
                  <stEvt:when>2017-07-30T17:21:50+02:00</stEvt:when>
                  <stEvt:softwareAgent>Adobe Illustrator CS6 (Windows)</stEvt:softwareAgent>
                  <stEvt:changed>/</stEvt:changed>
               </rdf:li>
               <rdf:li rdf:parseType="Resource">
                  <stEvt:action>saved</stEvt:action>
                  <stEvt:instanceID>xmp.iid:5B4173CF3A75E711B8B1F5C54CC5C5CA</stEvt:instanceID>
                  <stEvt:when>2017-07-30T17:31:49+02:00</stEvt:when>
                  <stEvt:softwareAgent>Adobe Illustrator CS6 (Windows)</stEvt:softwareAgent>
                  <stEvt:changed>/</stEvt:changed>
               </rdf:li>
            </rdf:Seq>
         </xmpMM:History>
      </rdf:Description>
   </rdf:RDF>
</x:xmpmeta>
                                                                                                    
                                                                                                    
                                                                                                    
                                                                                                    
                                                                                                    
                                                                                                    
                                                                                                    
                                                                                                    
                                                                                                    
                                                                                                    
                                                                                                    
                                                                                                    
                                                                                                    
                                                                                                    
                                                                                                    
                                                                                                    
                                                                                                    
                                                                                                    
                                                                                                    
                                                                                                    
                           
<?xpacket end="w"?>
	</metadata>
<g>
	<path d="M22.354,38.469c-0.223-1.29-1.092-2.322-2.326-2.762l-3.22-1.148c-2.408-0.858-5.033-0.563-7.2,0.808
		c-1.214,0.768-2.308,1.206-3.252,1.303c-0.369,0.037-0.662,0.329-0.701,0.698l-0.563,5.207c-0.026,0.243,0.062,0.477,0.225,0.641
		c0.087,0.087,0.195,0.153,0.317,0.192l2.731,0.87c4.396,1.401,9.153,0.493,12.726-2.425C22.106,41.024,22.578,39.759,22.354,38.469
		z M20.098,40.635c-3.16,2.582-7.367,3.383-11.254,2.145l-2.12-0.675l0.43-3.973c1.018-0.214,2.123-0.695,3.295-1.438
		c1.756-1.111,3.881-1.35,5.832-0.655l3.22,1.148c0.692,0.246,1.18,0.825,1.305,1.549C20.932,39.46,20.667,40.17,20.098,40.635z"/>
	<path d="M5.087,36.986c0.042-0.408-0.237-0.778-0.64-0.853l-2.434-0.448c-1.011-0.185-2.027,0.042-2.862,0.64
		c-0.835,0.597-1.377,1.485-1.529,2.502c-0.15,1.01,0.108,2.014,0.728,2.824c0.104,0.138,0.217,0.267,0.336,0.387
		c0.589,0.59,1.353,0.962,2.195,1.064l2.748,0.334c0.209,0.025,0.42-0.034,0.585-0.166s0.27-0.324,0.291-0.535L5.087,36.986z
		 M1.071,41.542c-0.59-0.07-1.113-0.371-1.472-0.842c-0.359-0.473-0.51-1.056-0.423-1.643c0.087-0.591,0.403-1.106,0.889-1.455
		c0.485-0.347,1.076-0.479,1.663-0.37l1.723,0.316L3.021,41.78L1.071,41.542z"/>
</g>
<g>
	<path d="M32.967,25.147c-3.572-2.918-8.33-3.826-12.726-2.425l-2.731,0.87c-0.122,0.039-0.23,0.105-0.317,0.192
		c-0.164,0.164-0.251,0.397-0.225,0.641l0.563,5.207c0.04,0.369,0.333,0.661,0.701,0.698c0.944,0.097,2.038,0.535,3.252,1.303
		c2.167,1.371,4.792,1.666,7.2,0.808l3.221-1.148c1.232-0.439,2.102-1.472,2.325-2.762S33.98,25.976,32.967,25.147z M32.682,28.264
		c-0.125,0.724-0.613,1.303-1.305,1.549l-3.221,1.148c-1.95,0.694-4.076,0.456-5.832-0.655c-1.172-0.742-2.278-1.224-3.295-1.438
		l-0.43-3.973l2.12-0.675c3.887-1.238,8.094-0.438,11.254,2.145C32.541,26.83,32.807,27.54,32.682,28.264z"/>
	<path d="M16.379,24.265c-0.021-0.211-0.126-0.403-0.291-0.535s-0.376-0.191-0.585-0.166l-2.748,0.334
		c-0.842,0.103-1.605,0.475-2.195,1.064c-0.12,0.12-0.232,0.249-0.336,0.387c-0.62,0.811-0.878,1.814-0.728,2.824
		c0.151,1.017,0.694,1.905,1.529,2.502c0.835,0.598,1.852,0.824,2.862,0.64l2.434-0.448c0.403-0.074,0.682-0.444,0.64-0.853
		L16.379,24.265z M14.896,25.22l0.429,4.231l-1.723,0.316c-0.586,0.108-1.178-0.023-1.663-0.37
		c-0.486-0.349-0.801-0.864-0.889-1.455c-0.087-0.587,0.063-1.17,0.423-1.643c0.359-0.471,0.882-0.771,1.472-0.842L14.896,25.22z"/>
</g>
<g>
	<path d="M51.104,38.469c-0.224-1.29-1.093-2.322-2.325-2.762l-3.221-1.148c-2.408-0.858-5.032-0.563-7.199,0.808
		c-1.215,0.768-2.309,1.206-3.252,1.303c-0.369,0.037-0.662,0.329-0.701,0.698l-0.563,5.207c-0.026,0.243,0.062,0.477,0.226,0.641
		c0.086,0.087,0.194,0.153,0.316,0.192l2.731,0.87c4.396,1.401,9.153,0.493,12.726-2.425C50.855,41.024,51.328,39.759,51.104,38.469
		z M48.848,40.635c-3.16,2.582-7.367,3.383-11.254,2.145l-2.119-0.675l0.43-3.973c1.018-0.214,2.123-0.695,3.295-1.438
		c1.756-1.111,3.882-1.35,5.832-0.655l3.221,1.148c0.691,0.246,1.18,0.825,1.305,1.549S49.416,40.17,48.848,40.635z"/>
	<path d="M33.837,36.986c0.042-0.408-0.237-0.778-0.64-0.853l-2.435-0.448c-1.011-0.185-2.027,0.042-2.862,0.64
		c-0.835,0.597-1.377,1.485-1.529,2.502c-0.15,1.01,0.109,2.014,0.729,2.824c0.104,0.138,0.217,0.267,0.336,0.387
		c0.59,0.59,1.354,0.962,2.195,1.064l2.748,0.334c0.209,0.025,0.42-0.034,0.584-0.166c0.166-0.132,0.271-0.324,0.291-0.535
		L33.837,36.986z M29.821,41.542c-0.591-0.07-1.112-0.371-1.472-0.842c-0.359-0.473-0.511-1.056-0.424-1.643
		c0.088-0.591,0.403-1.106,0.889-1.455c0.485-0.347,1.076-0.479,1.663-0.37l1.723,0.316l-0.429,4.231L29.821,41.542z"/>
</g>
<g>
	<path d="M61.717,25.147c-3.572-2.918-8.33-3.826-12.726-2.425l-2.731,0.87c-0.122,0.039-0.23,0.105-0.316,0.192
		c-0.164,0.164-0.252,0.397-0.226,0.641l0.563,5.207c0.039,0.369,0.332,0.661,0.701,0.698c0.943,0.097,2.037,0.535,3.252,1.303
		c2.167,1.371,4.791,1.666,7.199,0.808l3.221-1.148c1.232-0.439,2.102-1.472,2.325-2.762S62.73,25.976,61.717,25.147z
		 M61.432,28.264c-0.125,0.724-0.613,1.303-1.305,1.549l-3.221,1.148c-1.95,0.694-4.076,0.456-5.832-0.655
		c-1.172-0.742-2.277-1.224-3.295-1.438l-0.43-3.973l2.119-0.675c3.887-1.238,8.094-0.438,11.254,2.145
		C61.291,26.83,61.557,27.54,61.432,28.264z"/>
	<path d="M45.129,24.265c-0.021-0.211-0.125-0.403-0.291-0.535c-0.164-0.132-0.375-0.191-0.584-0.166l-2.748,0.334
		C40.664,24,39.9,24.372,39.311,24.962c-0.119,0.12-0.232,0.249-0.336,0.387c-0.619,0.811-0.879,1.814-0.729,2.824
		c0.152,1.017,0.694,1.905,1.529,2.502c0.835,0.598,1.852,0.824,2.862,0.64l2.435-0.448c0.402-0.074,0.682-0.444,0.64-0.853
		L45.129,24.265z M43.646,25.22l0.429,4.231l-1.723,0.316c-0.587,0.108-1.178-0.023-1.663-0.37
		c-0.485-0.349-0.801-0.864-0.889-1.455c-0.087-0.587,0.064-1.17,0.424-1.643c0.359-0.471,0.881-0.771,1.472-0.842L43.646,25.22z"/>
</g>
<g>
	<path d="M80.479,38.469c-0.224-1.29-1.093-2.322-2.325-2.762l-3.221-1.148c-2.408-0.858-5.032-0.563-7.199,0.808
		c-1.215,0.768-2.309,1.206-3.252,1.303c-0.369,0.037-0.662,0.329-0.701,0.698l-0.563,5.207c-0.026,0.243,0.062,0.477,0.226,0.641
		c0.086,0.087,0.194,0.153,0.316,0.192l2.731,0.87c4.396,1.401,9.153,0.493,12.726-2.425C80.23,41.024,80.703,39.759,80.479,38.469z
		 M78.223,40.635c-3.16,2.582-7.367,3.383-11.254,2.145l-2.119-0.675l0.43-3.973c1.018-0.214,2.123-0.695,3.295-1.438
		c1.756-1.111,3.882-1.35,5.832-0.655l3.221,1.148c0.691,0.246,1.18,0.825,1.305,1.549S78.791,40.17,78.223,40.635z"/>
	<path d="M63.212,36.986c0.042-0.408-0.237-0.778-0.64-0.853l-2.435-0.448c-1.011-0.185-2.027,0.042-2.862,0.64
		c-0.835,0.597-1.377,1.485-1.529,2.502c-0.15,1.01,0.109,2.014,0.729,2.824c0.104,0.138,0.217,0.267,0.336,0.387
		c0.59,0.59,1.354,0.962,2.195,1.064l2.748,0.334c0.209,0.025,0.42-0.034,0.584-0.166c0.166-0.132,0.271-0.324,0.291-0.535
		L63.212,36.986z M59.196,41.542c-0.591-0.07-1.112-0.371-1.472-0.842c-0.359-0.473-0.511-1.056-0.424-1.643
		c0.088-0.591,0.403-1.106,0.889-1.455c0.485-0.347,1.076-0.479,1.663-0.37l1.723,0.316l-0.429,4.231L59.196,41.542z"/>
</g>
</svg>
