<?xml version="1.0" encoding="utf-8"?>
<!-- Generator: Adobe Illustrator 16.0.0, SVG Export Plug-In . SVG Version: 6.00 Build 0)  -->
<!DOCTYPE svg PUBLIC "-//W3C//DTD SVG 1.1//EN" "http://www.w3.org/Graphics/SVG/1.1/DTD/svg11.dtd">
<svg version="1.1" id="Capa_1" xmlns="http://www.w3.org/2000/svg" xmlns:xlink="http://www.w3.org/1999/xlink" x="0px" y="0px"
	 width="65.625px" height="23.5px" viewBox="-2.5 21.75 65.625 23.5" enable-background="new -2.5 21.75 65.625 23.5"
	 xml:space="preserve">
<metadata><?xpacket begin="﻿" id="W5M0MpCehiHzreSzNTczkc9d"?>
<x:xmpmeta xmlns:x="adobe:ns:meta/" x:xmptk="Adobe XMP Core 5.3-c011 66.145661, 2012/02/06-14:56:27        ">
   <rdf:RDF xmlns:rdf="http://www.w3.org/1999/02/22-rdf-syntax-ns#">
      <rdf:Description rdf:about=""
            xmlns:xmp="http://ns.adobe.com/xap/1.0/"
            xmlns:xmpGImg="http://ns.adobe.com/xap/1.0/g/img/">
         <xmp:CreatorTool>Adobe Illustrator CS6 (Windows)</xmp:CreatorTool>
         <xmp:CreateDate>2017-07-30T17:34:16+02:00</xmp:CreateDate>
         <xmp:MetadataDate>2017-07-30T17:34:17+02:00</xmp:MetadataDate>
         <xmp:ModifyDate>2017-07-30T17:34:17+02:00</xmp:ModifyDate>
         <xmp:Thumbnails>
            <rdf:Alt>
               <rdf:li rdf:parseType="Resource">
                  <xmpGImg:width>256</xmpGImg:width>
                  <xmpGImg:height>92</xmpGImg:height>
                  <xmpGImg:format>JPEG</xmpGImg:format>
                  <xmpGImg:image>/9j/4AAQSkZJRgABAgEASABIAAD/7QAsUGhvdG9zaG9wIDMuMAA4QklNA+0AAAAAABAASAAAAAEA&#xA;AQBIAAAAAQAB/+4ADkFkb2JlAGTAAAAAAf/bAIQABgQEBAUEBgUFBgkGBQYJCwgGBggLDAoKCwoK&#xA;DBAMDAwMDAwQDA4PEA8ODBMTFBQTExwbGxscHx8fHx8fHx8fHwEHBwcNDA0YEBAYGhURFRofHx8f&#xA;Hx8fHx8fHx8fHx8fHx8fHx8fHx8fHx8fHx8fHx8fHx8fHx8fHx8fHx8fHx8f/8AAEQgAXAEAAwER&#xA;AAIRAQMRAf/EAaIAAAAHAQEBAQEAAAAAAAAAAAQFAwIGAQAHCAkKCwEAAgIDAQEBAQEAAAAAAAAA&#xA;AQACAwQFBgcICQoLEAACAQMDAgQCBgcDBAIGAnMBAgMRBAAFIRIxQVEGE2EicYEUMpGhBxWxQiPB&#xA;UtHhMxZi8CRygvElQzRTkqKyY3PCNUQnk6OzNhdUZHTD0uIIJoMJChgZhJRFRqS0VtNVKBry4/PE&#xA;1OT0ZXWFlaW1xdXl9WZ2hpamtsbW5vY3R1dnd4eXp7fH1+f3OEhYaHiImKi4yNjo+Ck5SVlpeYmZ&#xA;qbnJ2en5KjpKWmp6ipqqusra6voRAAICAQIDBQUEBQYECAMDbQEAAhEDBCESMUEFURNhIgZxgZEy&#xA;obHwFMHR4SNCFVJicvEzJDRDghaSUyWiY7LCB3PSNeJEgxdUkwgJChgZJjZFGidkdFU38qOzwygp&#xA;0+PzhJSktMTU5PRldYWVpbXF1eX1RlZmdoaWprbG1ub2R1dnd4eXp7fH1+f3OEhYaHiImKi4yNjo&#xA;+DlJWWl5iZmpucnZ6fkqOkpaanqKmqq6ytrq+v/aAAwDAQACEQMRAD8A9U4q7FXYq7FXYq7FXEgC&#xA;p2A6nFWJ6t+bX5Y6Q7R6h5p0uGZDR4RdRPKpG1DGjM4+7FWL3P8AzlB+R9vMsR8xiQsaM0VpeOqg&#xA;9ywhp91cVZD5x/ODyD5S8uWHmHVdR5afqqh9K+ro0r3KsgkBjUduLA1YgCuKvAfN3/Obd5IJIfKP&#xA;l9YAahL3VH5tQ9/q8JVVI/4yt8sVeSap+c/53ecrs2ya5qU0kn2bHSg0AI8PTtAjMP8AWriqlF+S&#xA;v53624nk8tarLI1fjvlaFvHf6yyHFV835A/nZp5E3+F75XUEq1uY5WHY/wBy7HviqjD55/PDyLcp&#xA;HLqet6M6n4LW/wDXERI/4oug0Z/4HFXqvkf/AJzS8xWbx2/nLSotUttg19Y0t7kf5TRMfRkPsOGK&#xA;vpfyH+Znkrz1p/1zy3qUd0UANxaN8FzDXb97C3xLvty+yexOKsoxV2KuxV2KsW1j81Py10aR4tT8&#xA;0aZbTx7SW7XcJlUjxiVi/wCGKsVvf+cn/wAj7SQRt5jEzcgG9G1u5FA3+LksXEjbsa4qyHzH+b3k&#xA;Dy/5PtPN19qavomo8Rp0sCNI9wzqWCxoByBoprypx6NQ4q8H83/85tmrw+UPL+37F7qr/wDYvAf+&#xA;Zv0Yq8g1j88/zt833f1ZNdv+ctRHY6SptvhP7IW1CyOP9YnFUNF+Tv53+YGWeXy5q9w7fZkvleJt&#xA;+9bkof2cVVJ/+cfvzssaT/4WvQy1KtA0cringInZsVUE81/nf5DmRZb7XdD4kBLe8+sJCabj9zcA&#xA;xt/wOKvTvI//ADmf5usJI7fzfp0Os2mwe8tQLW6A7sVH7l/9UKnzxV9M/l/+a/kbz7Zmfy5qKzTx&#xA;qHuNPlHp3UIP88R3pXbktV98VZdirsVdirsVdirsVWySRxRtJIwSNAWd2ICqoFSST0AxV8Kfnp+f&#xA;3mDz9rU+i6HPNbeU45DBbWkJZXvTy4iWYCjMHP2I+gFNuWKu8u/84k/nBrFpFczW9no6SgMseozs&#xA;kgUio5RwpOyH2YAjuMVY5+bv5La7+WL6THq17b3rass7RtaiTgpgKBl5SKlf70dsVTL8w3e9/I/8&#xA;rr3kSbU6zYzAn4QVukeOg3/Y618MVeof84yfkf8Alt5s8l/4m1+yl1K/W8mtjbyyulsnpBWUhI+B&#xA;aoffkxHtir6f0by/oWh2gs9G062021H+6LSJIU27kIFBOKo/FXYqo3lnZ3ts9teQR3NtKKSQTIsi&#xA;MPBlYEHFXjX5g/8AOKH5beZYpbjRYf8ADeqsCY5LMf6KW7c7Y0UD/jGVxV8sebvIP5mfk/5lt7uY&#xA;y2EyOf0brli7ehLStQsgpQkD4o3ANOopir6k/wCcev8AnIWH8wIjoGvCO282W0ZkVkHGK8iSnKSM&#xA;fsyL1dB2+JdqhVXt2KuxV8R/85B/85Ca35s1q78s+WrqS18r2sjW7vbsQ+oOp4l2Zd/SJ+wg69Wr&#xA;sFVSnyx/zil+b2u2UN69pbaRDOA0a6lMYpOJ6Foo0mkT5MoPtiqUfm5+RfmD8srPSbjVr+1vTqjz&#xA;IFtPUpGYQh3aRUry9Tw7Yqi/MryXn/OOPk2XkfT0zWtSsitTSs6i4Gx+npir0D/nFz8l/wAuvOvl&#xA;u91/zHazX99ZX72q2bTMlt6awxSI5WMIxYtIwILkbdMVfVmheWfLvl+0+qaHplrplt3itIUhBPi3&#xA;ADkfc4qmWKuxVTuLe3uYHguIkmglBWSKRQ6Mp6hlNQRiryD8wv8AnFn8tPNUck+m2w8t6q1StzYI&#xA;BAT/AMWWvwxkf6nA++KvlTz7+Vn5j/lLrkF9M0kMUcldN8waeziMsOg5ji0clOqN9FRvir6R/wCc&#xA;d/8AnI4+dZU8reaeEXmdULWd4gCR3qxrVwUGyTBQWIX4WFSAKUxV77irsVdirsVdirAvz61G60/8&#xA;nfNdzbcvVNi8NV6hbhlhc/QkhxV8uf8AOHnl3S9V/NOa8vkWWTR7CS8so3ANJzLHCJKH+RZDTwND&#xA;1GKvuDFXzL/znDYc9A8q6hT/AHnu7q3rT/f8aP1/54Yq8cux9d/5xisZur6T5rltyu1VjubES8tu&#xA;xfbfFXuH/OEmoB/I/mDTq72+pi4ptX9/bonz/wB0Yq+jcVdirsVdirsVS7zD5e0bzFo91o2s2kd7&#xA;p14hSeCUBgfBhX7LKd1Ybg7jFX572q3H5d/nSkNpMzHy9rZgWXvJDFcemwan+/Iqhh74q/RnFWK/&#xA;mvqNzp35Zear21JW4g0q8aFxsVf0GAYf6pNcVfGv/OKfl3S9a/OCx/SKLKmm281/bxOAVaeLisZI&#xA;P8hk5j3UYq+9MVfPH/ObFh6n5eaLfBam21ZYiRXZZreYkntSsQxV4Tpdb3/nGXW7cAn9E+aLW+Ps&#xA;Li0NtXb38dsVeu/84O6hz0zzbpxP9zPZ3Cjx9ZJUNN/+KRXbFX1BirsVdirsVdiqD1jRtL1rTLnS&#xA;9VtY7zT7tDFcW0o5I6t/nsRuO2Kvzw83adcfln+b17b6XKxfy7qSz6e5PxGNWWaFXI6/u2Ct474q&#xA;/RvFXYq7FXYq7FUp82+XbbzJ5X1XQLk8YdUtZrVnpXgZUKq4HipIYYq/P7yzrvmz8nPzOM01tx1P&#xA;SJXtdRsXJCTwPs6hqfZdaPG9P5W3xV9aaV/zln+S95py3V3qdxptyVq9hPaXEkganQPAksR36fH9&#xA;2KvGf+ckPz78g/mD5UtNC0CG9e7tL+O9F5PCkUJRYpYmQEuZKn1QfsAbYqxLyPa3Gr/848/mBY28&#xA;TTy6RqGm6p6aDkyo5aKR+NCaLHGxJ8B4DFUi/Kb86/Nf5ZzXx0WG1urXUjEby2u1dgfR5hSjI6FW&#xA;pIfHttir6k/Lj/nLHyB5plisNaRvLWqyniouXV7N2JoAtzROJP8AxYqj3OKvblZWUMpDKwqrDcEH&#xA;uMVbxV2KtO6IjO7BUUEsxNAANySTiryj8xv+clPy28o2NylpqMOua4ikW+nWLesvqdB6s6ViRQft&#xA;fFy8Bir5O/KLy5rf5kfnHZT3Cmcy351jXbgCiiJZvXmJp9n1HPBfdhir9CcVQetaVa6vo99pN4OV&#xA;pqNvLaXC+Mc6GNx/wLYq/PKKTzf+TX5pBygTVtCuGHFwRDc27grX3jmibbuK+IxV9Y6B/wA5b/k7&#xA;qGmJc6lfT6Ne8R6tjPbXEzBqbhJLeOVGWvQmh9hiryz/AJyG/wCchfy788+SJPLehpfT3guobmK7&#xA;lgWO3AiLBt2kElSrGn7vFWCflTaXGrfk7+aujwRtPOtvpeowRoAzAWly8kzAfa/uxv4DFWNflV+b&#xA;/mf8tdSurzQ47a4S/WOO8t7tGZHWMkrQoyMpHI71+jFX1H+XX/OXXkTzFJHY+Y4m8tak5CrLK3q2&#xA;Tk/8XgKY/wDnooUfzYq92hmimiSaF1kikUPHIhDKysKhlI2IIxVdirsVcSFBJNANyT0AxV5h+YX/&#xA;ADkV+Wfk60uV/SkWr6zEp9HSrBxMzSdAskqco4qH7XI1A6KemKvjrylo+u/m1+bkazp6k+s3zXuq&#xA;ugPCG2585j7KifAle/EYq/RTFXYq7FXYq7FXYqwH80vyT8k/mNbIdYga21WFeFtq9rxS4VeoRyQV&#xA;kSv7LDbfjSuKvBrv/nB7WluiLPzVbSWtdnmtZEkAr/Ksjqaf62Ksj0T/AJwi8rQ8TrfmS9vSN2Wz&#xA;hitB7Csn1r/PwxV7R+Xn5X+T/wAv9Km07y5atEl04ku55nMs0rKOK82NNlHQAAdfE4qoeafya/LD&#xA;zPbvFq3lyyaRx/vVbxC2uAabETQ8H28Cae2Kvmr80/8AnEDX9GWXU/I80mt6etWfTJeIvox/xWVC&#xA;pOPkFbsA2KvPvJH55/mt+XUh0q2u3eztW4PomqxtJHEV/YCsUlhp/KjL8sVet6d/znHcrGq6l5RS&#xA;ST9qW2vTGtado3hk/wCJ4qluvf8AObnmi4gZND8uWenSMKerdTyXhHuAq2or864q8p1Pzj+cf5o6&#xA;h9RlutS16RjUabZo3oKD0JggVYwB/Mw+nFXoPkv/AJw4/MDVvTn8x3Vv5etGoTDUXV1Q7/3cZEa7&#xA;eMlR4Yq+p/y1/K7yp+XmiHS9AgIaUh72+mIa4uHUUDSMANh+yoAA8NzirLsVdirCfzN/J/yX+Ytg&#xA;kGu2zJe24Is9TtyEuYa78QxDBkr+wwI+nfFXgOof84PaqLo/o/zVA9oTsbi1dJAPCiSOrfPbFU80&#xA;T/nCHy7FxOt+Zru76FksoI7X6A0hua/OmKvZvy3/ACl8l/l3aXUHly2kSS9KG7uriQyzSenXgCdl&#xA;AXkdlA64qqeZfyk/LXzLC8WseXLGdnrW4jiWCcV8JofTkH/BYq+bvzR/5w71bTUl1PyHcvqlqtWf&#xA;R7kqt0o6/uZBxSX/AFSFb/WOKvMfJ35w/mv+WV2+l21zNBDbMVn0HVI3eJG6kek/CSLxPBlrir1z&#xA;S/8AnOK+SJE1XylFNL/uya1vGiXp2jkilPX/AC8VQmt/85v+Yp4SuieWLSxlIp6t3cSXYB8QsaWv&#xA;b3xV5PrX5h/nH+Zl8dPlvtR1hpa00mwjYQ8Ttvb2yhWA/mYH54qzjyX/AM4e/mPrPpz6/Lb+XbNq&#xA;FllIubrifCKI8Bt2aQH2xV9S/lb+UPlH8uNKe00SJpb24C/X9Tno085XoCQAEQfsou3jU74qzfFX&#xA;Yq7FXYq7FXYq7FWN6p+ZX5eaS7R6l5m0u0lTZoZbyBZK1p9gvy7+GKrNO/NH8tdScR2PmrSbiVvs&#xA;wpe2/qHt9gvy/DFWTKysoZSGVhVWG4IPcYq3irsVY/5p/L/yT5rj4eYtFtNSIHFZpol9ZR4JMKSL&#xA;/sWxV53d/wDOJX5Kzy84tOurVf8AfUV5MV/5KtI344qjdH/5xc/JXTZVlOhtfSLupvLieVfpjDrG&#xA;fpXFXpekaLo+jWSWOkWNvp9lH9i2tYkhjHyVAoxVGYq7FXYq7FXYqx/V/wAw/IOjyNFqvmPTLGZa&#xA;1hnvII5NuvwM4b8MVQth+a35Y6g4js/NekSyseKxC9tw5O3RC4Y9fDFWUo6SIHjYOjCqspqCPEEY&#xA;q3irsVSPzN5H8n+aIRD5h0a01NVFEe4iV5EH+RJTmn+xIxV5zff84m/krczGSLTLmzB6xwXc5X/k&#xA;q0h/HFURpX/OK/5KafKJW0WS+dTVfrdzO6j5orojf7IHFXpejaBoeh2YstG0+2020G4gtIkhSvjx&#xA;QKK++Ko/FXYqhNW1fS9H06fUtVu4rGwtl5T3Vw6xxoK03ZiBudhirxbW/wDnMb8p9PuWgsotS1ZV&#xA;NPrFtAkcRFd6fWJIZP8AhMVRui/85cfk1qJUXN5eaSzGgF7auevibY3Cj78VeleV/Pfk3zUkj+Xd&#xA;ZtNUMIBmjt5VaRAeheP7ag9iRiqdyyxRRtLK6xxoCzuxAUAdSSemKvF/zO/5yo8g+U4pbPQ5V8ya&#xA;4AVWK1cfVIm6VluBVTT+WPkex49cVfLXmX8z/wA3vzR1Q6e9zeXwuCfS0HTEkEAXw9CKpcCv2pOR&#xA;98VT3Rv+cTvzm1KFZZdOttMVhVVvblFanusXrMPpGKquq/8AOJH5zWMJlgsrTUqCpjtLpA/3T+hX&#xA;6MVYrp/mr84/yt1AWkdzqfl+RTX6hdK/1d6d/QmDROP8oD6cVeyeS/8AnNi/iMdv5y0NbhOj3+mN&#xA;6clPE28pKsflIvyxV9GeQ/zK8m+e9NN/5b1BboR0+s2zAx3EJboJYm+Jemx+yexOKsnxV2KofUNQ&#xA;sNOspr7ULiO0srdS89zO6xxoo6lmYgAYq8X8w/8AOYP5TaXcvb2Qv9ZZDT1rOBVhJHX4rh4WPzCk&#xA;YqraN/zl5+TeoMFuri+0mve9tWYf9OrXOKvSPK35i+RvNZZPLuuWmpTRr6klvDIPWVK05NE1JAKm&#xA;lSuKshZlVSzEKqirMdgAO5xV4/8AmZ/zk9+Xvk6KW106dfMOuKCEs7Jw0COP9/XA5ItO4Xk3sMVf&#xA;K3m384vzc/MzU/0f9aupI7pitvoGkpIsTA78fSi5STf7Mtiqa6F/zip+c2qwpNJpcOmRvuv164jR&#xA;qU7xx+rIvyZQcVRWp/8AOIv5y2cJkgtbLUCBX0ra6QN/yXEI/HFWJ22sfnJ+VWoLAk2qeXJAxK20&#xA;wcWshBqSIpA1vKPehxV675L/AOc1tatvTt/OOjR38Q2e/wBPPozU8TC5Mbn5MgxV9Gfl7+a3kjz/&#xA;AGT3Hly/E00IBurGUelcw16F4z+z/lKSvvirLsVdirsVdirsVdir4O/5yM/NTV/PnnyfQtPkd9A0&#xA;i5az02yiqRcXCMYnuCFrzZ3qsfgtKblqqvQvI3/OFhutIhvPOOsTWV9Ooc6bYrGTDUVCyTPzVnHc&#xA;KtB4nFUo/Mn/AJxETyr5Y1TzJY+Z/rFrpkD3D2lza8HYJ0VZUkYEt0+wMVYl/wA4wX9xpfnTXtbh&#xA;biNG8ualfygmiMsIjIDioqvMqcVYb+lvzR/MfV/0ab3U/Md/clpRZGWSVAAeRKxE+nGq+wAGKvXf&#xA;y/8A+cNfNmoyxXXnO8j0WxqDJY2zLcXjDuvNeUMdfGr/AOrir6m8k/l95Q8k6WNN8t6dHZRED1pg&#xA;OU8zD9qaVqu5+ZoO1BirIsVdiqE1XSNJ1ezex1Wygv7KT7dtdRpNG3bdHDL3xV4v54/5xE/LXXUl&#xA;n0L1vLmoNUobdjNalz/NBISQPaN1GKvluwvPOn5M/meQ/wC51XR5gl5Ajn0bq2ejlCf2opoyCKio&#xA;2OzDFX6G6TqdpqulWWqWbc7O/giurZzsTHMgdD/wLYqisVfD/wDzlJ+bepeaPOV15T0+dl8u6HMb&#xA;doEO1xexnjLI4H2vTeqIPYnvirKfy8/5wyudR0eHUfOeqzaZcXKB10q0RDLEGFR60snJQ/igXbx8&#xA;FVPz5/zhxDoWg6rr2m+aC9ppdpPey211a/GY7eNpWAljk3JVf994qwD/AJxdkNv+btnqBYiHT7K/&#xA;up1DcQyJayDi2xqKsDirFr3zV+aP5i63+j5dQ1HXL/UZGaLS45JHjJUGRhHbqfTRUVSdloAK4q9T&#xA;8gf84c+dtWliufN1xHoGn1Be2jZLi8detAELRR18WYkfy4q+p/IP5Y+S/Iem/UvLmnrblwBcXj/v&#xA;LmYjvLKfiO/7Ioo7AYqynFXYqh9Q03TtStHs9RtYb20l2kt7iNZY2H+UjgqcVeOedv8AnEv8rvMC&#xA;yTaTFL5d1BgSr2TcrcuenO3k5Lx9oymKvlLUbHzr+TP5miMSiHWNIlWWGaMn0bm3fceHKKVPhZfm&#xA;OoxV+gvlfzBZ+YvLmma9Zgi11S1iu4lJqVEqBuLe61offFUzxV2KuxV2KuxV+dP5JvZWv5zeWDrI&#xA;4pHqSLJ6v7NxUrEWr3E/HFX6LYq8t/5ycv8A6l+SHmRlJDzrbW60qK+rdRK3T/Irir5U/Jo/VPJP&#xA;5o6tuPS0AWHIGn+984jptvvw/rirKP8AnC7TxP8AmhqN2w+Gz0mYqf8ALknhQdv5eWKvtXFXYq7F&#xA;XYq7FXYq+DP+crPMOk61+b96dNkWZNOtobG4mQgq08XJpACOvDnwPuDir7J/Kmwu9P8Ayy8q2V2C&#xA;LmDSrNJUbqregvwGv8vTFWVYq/Obyy9vafndpz+YSqxQeYkOpNJsqsl58ZetPhDbt7Yq/RnFWAfn&#xA;7fmx/JvzZMDTnYtB/wBJDLD7f78xV8hfkEfqq/mBq52+oeUtSER3p60/ppHWlPfviqaf84g6f9a/&#xA;OOCelfqNhd3Fd9uQWD/mdir7oxV2KuxV2KuxV2Kvh/8A5zC8w6Rqv5pw2tgyyy6RYR2d/KtDSf1Z&#xA;JTHUdeCyCvgSR2xV9R/kNp93Yfk95Ut7uvrGwSajbEJOzTRj6EcDFWe4q7FXYq7FXYq+IP8AnJv8&#xA;mNU8p+abrzbpMDP5a1aczvJED/ol1KeTo9Pso71aNun7PYVVTTyL/wA5l+atG0yHT/Mukx6+YFEc&#xA;d+k31W4KDasv7uVJGA70Wvep3xVT/Or/AJyY0H8wvy/by9ZaTd6feyXUM8jStHJD6cXIkBlKtXkR&#xA;+xirD/KBFl/zj3+YFwdv0tqOkWAPibeR7mgr867b4qzX/nDfzJ5T0TXPMR1vVbXTbu8htYdPW7kE&#xA;Il+KVpQruVSoITY7mu2KvslHSRFkjYOjgMjqagg7ggjFW8VdirsVSPzZ558o+UbE33mPVbfTYKEo&#xA;Jn/eSU6iKIVkkPsinFXyl+cP/OWur69FPovkdZdI0p6pNqrnjezL0/dcT+4U+Nef+ruMVSv/AJx7&#xA;/wCceNW83anZ+ZvMls1t5SgdZ445QQ9+ymqoinf0Sftv3Gy9yqr7dAAFBsB0GKuxV8Zf85WfkzqW&#xA;keZLrzzo9s0+haq3q6mIlLfVbo7O8lK0jmPxcv5yQafDVVQ/Lz/nMDzb5c0iDSdf01PMMFsqxwXZ&#xA;nNvciNQABI/CVZOIHUqCe5OKo/8ANr/nKTQfPf5b6l5Yt9Gu9Pv79rc83eKWELDPHMQWBV/917fD&#xA;irBfy0P1T8nvzU1M7ObfSrCI/wA31q8YSAHpsq1OKsj/AOcQvMPlXQfPGrXevapbaY1xYC0s3u5F&#xA;iR2kmR2UO5Cj+6HXFX2zDNDPEk0MiyxSDkkiEMrA9CCNjiq/FXYq7FUn8z+cPK/lawN/5h1O30y1&#xA;/ZedwrOR2jT7bn2UE4q+Wvze/wCcvL3U4Z9G8gRyafZyAxza5MONy6nY/V039IH+dvi8ApxViH5E&#xA;/kDr3n/V4Nd1yKS38pRy+rc3U3JZL0g1MUNfiYMdnk6Deh5Yq+6o444o1jjUJGgCoigBVUCgAA6A&#xA;YquxV2KuxV2KuxVTuLe3uYJLe4iSaCVSksMih0ZTsVZTUEHFXlev/wDOLn5M6xPJONGbTZpCSzWE&#xA;0kKVNfsxEvEvyVAMVYbqX/OE3kKUk6drmqWhNSBN6Fwo69OMcJp074qzG3/5xv8AJdv+Vd5+X0dx&#xA;cGG8uBfPqrCM3Au148JAOIXiFThx/lJ3qa4q8D83/wDOGv5iaWXl8vXdrr9sv2I6/VLk/wCwlJi/&#xA;5K4q87h1L85fyxufQWXV/LdGNIJBLHbO1a1CODBJ86HFWZ6V/wA5gfnFZKBcyafqZHVru14k7U3+&#xA;rPbj3xVMH/5zU/NVkKjTdEQkUDrb3VR7it0R+GKsX17/AJyc/OjWlMI1w2ETn+60+GOBt+wkCtN/&#xA;w+KoTy3+Sn5y+f7769+jbxhckNLrOsM8KMDtz9Sesko/1FbFX0f+V3/OJXk/yzJFqXmiRfMWrIQ6&#xA;QOnGxiYb7RGpm+cm3+Tir3lVVVCqAqqKKo2AA7DFW8Vdiq2WKKWJ4pUWSKRSskbAMrKwoQQdiCMV&#xA;eWeYf+cYfyZ1q5e5bRDp88hq7afNJbp9EIJhX/YoMVYbqX/OFH5fTVOna1qlox6CU286D5ARRN/w&#xA;2Ksu0H/nG7yXpP5bax5I+sXFxHrjJLfamwQT+rCVaEoACqrGy1C79Tvvirwjzd/zhj5904NN5b1C&#xA;116EVpA/+h3J8ABIzQn5mUYq82B/Ob8r7sj/AHL+Wjy3/vY7aQg/TBKK/PFWYaT/AM5e/nJYqq3N&#xA;xYapx6td2qqT8/qzW+Kpm/8Azmp+ajIyjTNEQkEBhb3dR7it0RirGte/5yk/OjV0aNdaXTYWrWOw&#xA;giiP0SMHlH0PiqW6F+Uf5z/mFffX/wBG39409PU1jVXeNCP5vWuTykA/yORxV9Fflh/ziF5W0CWL&#xA;UvOE6+YNSjIdLJVKWEbDf4lb456H+ai+KYq+gYYYoYkhhRY4o1CRxoAqqqigVQNgAMVXYq7FXYq7&#xA;FXYq7FXYq7FXYq7FXYqo3n1P6tJ9c9P6rT9763H0+P8AlctqfPFXlXmT/oVz1X/TP+FfrPxerw+p&#xA;+v2ry9D95Xwrv4YqkFr/ANCdeuvp/wCH+e9PVrw6Hr6nwffir0jyZ/yp7kv+DP0B6lBT9FfU/U9q&#xA;+h8VfnirMsVdirsVdirsVdirsVdirsVdiqyf0PRf1+Po0Pqc6cePetdqYq8t8y/9Cyeq/wCnP8K/&#xA;Wd+dfqXr9619P95irGbb/oTr109P9Ac+3q8uHTv6nwffir0Pyb/ypX1Y/wDB3+HfrG3D9F/UvWrQ&#xA;dfR/ecqUrXfFWcYq7FXYq7FXYq7FXYq7FXYq/wD/2Q==</xmpGImg:image>
               </rdf:li>
            </rdf:Alt>
         </xmp:Thumbnails>
      </rdf:Description>
      <rdf:Description rdf:about=""
            xmlns:xmpTPg="http://ns.adobe.com/xap/1.0/t/pg/"
            xmlns:stDim="http://ns.adobe.com/xap/1.0/sType/Dimensions#"
            xmlns:xmpG="http://ns.adobe.com/xap/1.0/g/">
         <xmpTPg:MaxPageSize rdf:parseType="Resource">
            <stDim:w>65.625000</stDim:w>
            <stDim:h>23.500000</stDim:h>
            <stDim:unit>Pixels</stDim:unit>
         </xmpTPg:MaxPageSize>
         <xmpTPg:NPages>1</xmpTPg:NPages>
         <xmpTPg:HasVisibleTransparency>False</xmpTPg:HasVisibleTransparency>
         <xmpTPg:HasVisibleOverprint>False</xmpTPg:HasVisibleOverprint>
         <xmpTPg:PlateNames>
            <rdf:Seq>
               <rdf:li>Cyan</rdf:li>
               <rdf:li>Magenta</rdf:li>
               <rdf:li>Yellow</rdf:li>
               <rdf:li>Black</rdf:li>
            </rdf:Seq>
         </xmpTPg:PlateNames>
         <xmpTPg:SwatchGroups>
            <rdf:Seq>
               <rdf:li rdf:parseType="Resource">
                  <xmpG:groupName>Default Swatch Group</xmpG:groupName>
                  <xmpG:groupType>0</xmpG:groupType>
               </rdf:li>
            </rdf:Seq>
         </xmpTPg:SwatchGroups>
      </rdf:Description>
      <rdf:Description rdf:about=""
            xmlns:dc="http://purl.org/dc/elements/1.1/">
         <dc:format>image/svg+xml</dc:format>
      </rdf:Description>
      <rdf:Description rdf:about=""
            xmlns:xmpMM="http://ns.adobe.com/xap/1.0/mm/"
            xmlns:stRef="http://ns.adobe.com/xap/1.0/sType/ResourceRef#"
            xmlns:stEvt="http://ns.adobe.com/xap/1.0/sType/ResourceEvent#">
         <xmpMM:DerivedFrom rdf:parseType="Resource">
            <stRef:instanceID>xmp.iid:0E0F673B3C75E711B8B1F5C54CC5C5CA</stRef:instanceID>
            <stRef:documentID>xmp.did:0E0F673B3C75E711B8B1F5C54CC5C5CA</stRef:documentID>
            <stRef:originalDocumentID>xmp.did:524173CF3A75E711B8B1F5C54CC5C5CA</stRef:originalDocumentID>
         </xmpMM:DerivedFrom>
         <xmpMM:DocumentID>xmp.did:0F0F673B3C75E711B8B1F5C54CC5C5CA</xmpMM:DocumentID>
         <xmpMM:InstanceID>xmp.iid:0F0F673B3C75E711B8B1F5C54CC5C5CA</xmpMM:InstanceID>
         <xmpMM:OriginalDocumentID>xmp.did:524173CF3A75E711B8B1F5C54CC5C5CA</xmpMM:OriginalDocumentID>
         <xmpMM:History>
            <rdf:Seq>
               <rdf:li rdf:parseType="Resource">
                  <stEvt:action>saved</stEvt:action>
                  <stEvt:instanceID>xmp.iid:524173CF3A75E711B8B1F5C54CC5C5CA</stEvt:instanceID>
                  <stEvt:when>2017-07-30T17:21:50+02:00</stEvt:when>
                  <stEvt:softwareAgent>Adobe Illustrator CS6 (Windows)</stEvt:softwareAgent>
                  <stEvt:changed>/</stEvt:changed>
               </rdf:li>
               <rdf:li rdf:parseType="Resource">
                  <stEvt:action>saved</stEvt:action>
                  <stEvt:instanceID>xmp.iid:0F0F673B3C75E711B8B1F5C54CC5C5CA</stEvt:instanceID>
                  <stEvt:when>2017-07-30T17:34:17+02:00</stEvt:when>
                  <stEvt:softwareAgent>Adobe Illustrator CS6 (Windows)</stEvt:softwareAgent>
                  <stEvt:changed>/</stEvt:changed>
               </rdf:li>
            </rdf:Seq>
         </xmpMM:History>
      </rdf:Description>
   </rdf:RDF>
</x:xmpmeta>
                                                                                                    
                                                                                                    
                                                                                                    
                                                                                                    
                                                                                                    
                                                                                                    
                                                                                                    
                                                                                                    
                                                                                                    
                                                                                                    
                                                                                                    
                                                                                                    
                                                                                                    
                                                                                                    
                                                                                                    
                                                                                                    
                                                                                                    
                                                                                                    
                                                                                                    
                                                                                                    
                           
<?xpacket end="w"?>
	</metadata>
<g>
	<path d="M22.354,38.469c-0.223-1.29-1.092-2.322-2.326-2.762l-3.22-1.148c-2.408-0.858-5.033-0.563-7.2,0.808
		c-1.214,0.768-2.308,1.206-3.252,1.303c-0.369,0.037-0.662,0.329-0.701,0.698l-0.563,5.207c-0.026,0.243,0.062,0.477,0.225,0.641
		c0.087,0.087,0.195,0.153,0.317,0.192l2.731,0.87c4.396,1.401,9.153,0.493,12.726-2.425C22.106,41.024,22.578,39.759,22.354,38.469
		z M20.098,40.635c-3.16,2.582-7.367,3.383-11.254,2.145l-2.12-0.675l0.43-3.973c1.018-0.214,2.123-0.695,3.295-1.438
		c1.756-1.111,3.881-1.35,5.832-0.655l3.22,1.148c0.692,0.246,1.18,0.825,1.305,1.549C20.932,39.46,20.667,40.17,20.098,40.635z"/>
	<path d="M5.087,36.986c0.042-0.408-0.237-0.778-0.64-0.853l-2.434-0.448c-1.011-0.185-2.027,0.042-2.862,0.64
		c-0.835,0.597-1.377,1.485-1.529,2.502c-0.15,1.01,0.108,2.014,0.728,2.824c0.104,0.138,0.217,0.267,0.336,0.387
		c0.589,0.59,1.353,0.962,2.195,1.064l2.748,0.334c0.209,0.025,0.42-0.034,0.585-0.166s0.27-0.324,0.291-0.535L5.087,36.986z
		 M1.071,41.542c-0.59-0.07-1.113-0.371-1.472-0.842c-0.359-0.473-0.51-1.056-0.423-1.643c0.087-0.591,0.403-1.106,0.889-1.455
		c0.485-0.347,1.076-0.479,1.663-0.37l1.723,0.316L3.021,41.78L1.071,41.542z"/>
</g>
<g>
	<path d="M32.967,25.147c-3.572-2.918-8.33-3.826-12.726-2.425l-2.731,0.87c-0.122,0.039-0.23,0.105-0.317,0.192
		c-0.164,0.164-0.251,0.397-0.225,0.641l0.563,5.207c0.04,0.369,0.333,0.661,0.701,0.698c0.944,0.097,2.038,0.535,3.252,1.303
		c2.167,1.371,4.792,1.666,7.2,0.808l3.221-1.148c1.232-0.439,2.102-1.472,2.325-2.762S33.98,25.976,32.967,25.147z M32.682,28.264
		c-0.125,0.724-0.613,1.303-1.305,1.549l-3.221,1.148c-1.95,0.694-4.076,0.456-5.832-0.655c-1.172-0.742-2.278-1.224-3.295-1.438
		l-0.43-3.973l2.12-0.675c3.887-1.238,8.094-0.438,11.254,2.145C32.541,26.83,32.807,27.54,32.682,28.264z"/>
	<path d="M16.379,24.265c-0.021-0.211-0.126-0.403-0.291-0.535s-0.376-0.191-0.585-0.166l-2.748,0.334
		c-0.842,0.103-1.605,0.475-2.195,1.064c-0.12,0.12-0.232,0.249-0.336,0.387c-0.62,0.811-0.878,1.814-0.728,2.824
		c0.151,1.017,0.694,1.905,1.529,2.502c0.835,0.598,1.852,0.824,2.862,0.64l2.434-0.448c0.403-0.074,0.682-0.444,0.64-0.853
		L16.379,24.265z M14.896,25.22l0.429,4.231l-1.723,0.316c-0.586,0.108-1.178-0.023-1.663-0.37
		c-0.486-0.349-0.801-0.864-0.889-1.455c-0.087-0.587,0.063-1.17,0.423-1.643c0.359-0.471,0.882-0.771,1.472-0.842L14.896,25.22z"/>
</g>
<g>
	<path d="M51.104,38.469c-0.224-1.29-1.093-2.322-2.325-2.762l-3.221-1.148c-2.408-0.858-5.032-0.563-7.199,0.808
		c-1.215,0.768-2.309,1.206-3.252,1.303c-0.369,0.037-0.662,0.329-0.701,0.698l-0.563,5.207c-0.026,0.243,0.062,0.477,0.226,0.641
		c0.086,0.087,0.194,0.153,0.316,0.192l2.731,0.87c4.396,1.401,9.153,0.493,12.726-2.425C50.855,41.024,51.328,39.759,51.104,38.469
		z M48.848,40.635c-3.16,2.582-7.367,3.383-11.254,2.145l-2.119-0.675l0.43-3.973c1.018-0.214,2.123-0.695,3.295-1.438
		c1.756-1.111,3.882-1.35,5.832-0.655l3.221,1.148c0.691,0.246,1.18,0.825,1.305,1.549S49.416,40.17,48.848,40.635z"/>
	<path d="M33.837,36.986c0.042-0.408-0.237-0.778-0.64-0.853l-2.435-0.448c-1.011-0.185-2.027,0.042-2.862,0.64
		c-0.835,0.597-1.377,1.485-1.529,2.502c-0.15,1.01,0.109,2.014,0.729,2.824c0.104,0.138,0.217,0.267,0.336,0.387
		c0.59,0.59,1.354,0.962,2.195,1.064l2.748,0.334c0.209,0.025,0.42-0.034,0.584-0.166c0.166-0.132,0.271-0.324,0.291-0.535
		L33.837,36.986z M29.821,41.542c-0.591-0.07-1.112-0.371-1.472-0.842c-0.359-0.473-0.511-1.056-0.424-1.643
		c0.088-0.591,0.403-1.106,0.889-1.455c0.485-0.347,1.076-0.479,1.663-0.37l1.723,0.316l-0.429,4.231L29.821,41.542z"/>
</g>
<g>
	<path d="M61.717,25.147c-3.572-2.918-8.33-3.826-12.726-2.425l-2.731,0.87c-0.122,0.039-0.23,0.105-0.316,0.192
		c-0.164,0.164-0.252,0.397-0.226,0.641l0.563,5.207c0.039,0.369,0.332,0.661,0.701,0.698c0.943,0.097,2.037,0.535,3.252,1.303
		c2.167,1.371,4.791,1.666,7.199,0.808l3.221-1.148c1.232-0.439,2.102-1.472,2.325-2.762S62.73,25.976,61.717,25.147z
		 M61.432,28.264c-0.125,0.724-0.613,1.303-1.305,1.549l-3.221,1.148c-1.95,0.694-4.076,0.456-5.832-0.655
		c-1.172-0.742-2.277-1.224-3.295-1.438l-0.43-3.973l2.119-0.675c3.887-1.238,8.094-0.438,11.254,2.145
		C61.291,26.83,61.557,27.54,61.432,28.264z"/>
	<path d="M45.129,24.265c-0.021-0.211-0.125-0.403-0.291-0.535c-0.164-0.132-0.375-0.191-0.584-0.166l-2.748,0.334
		C40.664,24,39.9,24.372,39.311,24.962c-0.119,0.12-0.232,0.249-0.336,0.387c-0.619,0.811-0.879,1.814-0.729,2.824
		c0.152,1.017,0.694,1.905,1.529,2.502c0.835,0.598,1.852,0.824,2.862,0.64l2.435-0.448c0.402-0.074,0.682-0.444,0.64-0.853
		L45.129,24.265z M43.646,25.22l0.429,4.231l-1.723,0.316c-0.587,0.108-1.178-0.023-1.663-0.37
		c-0.485-0.349-0.801-0.864-0.889-1.455c-0.087-0.587,0.064-1.17,0.424-1.643c0.359-0.471,0.881-0.771,1.472-0.842L43.646,25.22z"/>
</g>
</svg>
