<?xml version="1.0" encoding="utf-8"?>
<!-- Generator: Adobe Illustrator 16.0.0, SVG Export Plug-In . SVG Version: 6.00 Build 0)  -->
<!DOCTYPE svg PUBLIC "-//W3C//DTD SVG 1.1//EN" "http://www.w3.org/Graphics/SVG/1.1/DTD/svg11.dtd">
<svg version="1.1" id="Capa_1" xmlns="http://www.w3.org/2000/svg" xmlns:xlink="http://www.w3.org/1999/xlink" x="0px" y="0px"
	 width="50px" height="50px" viewBox="0 0 50 50" enable-background="new 0 0 50 50" xml:space="preserve">
<g>
	<path d="M50,25C50,11.214,38.785,0,25,0S0,11.214,0,25c0,13.785,11.215,25,25,25S50,38.785,50,25z M1.923,25
		C1.923,12.276,12.275,1.923,25,1.923S48.077,12.276,48.077,25c0,12.725-10.353,23.077-23.077,23.077S1.923,37.725,1.923,25z"/>
	<path d="M14.632,30.77h20.524l-9.97-17.267L14.632,30.77z M18.061,28.846l7.079-11.579l6.686,11.579H18.061z"/>
</g>
</svg>
